<svg xmlns="http://www.w3.org/2000/svg" fill-rule="evenodd" stroke-linejoin="round" stroke-miterlimit="2" clip-rule="evenodd" viewBox="0 0 26 58"><defs/><path d="M9.282 2.354c-.803 4.982-.993 10.35-.865 15.787.07 3.145.278 6.31.516 9.444.371 4.88.843 9.67 1.572 14.135.353 2.348.662 4.763 1.126 7.135.326 1.679.746 3.321 1.293 4.909a2.422 2.422 0 003.165 1.315 2.42 2.42 0 001.316-3.162c-.64-1.32-1.175-2.699-1.63-4.123-.714-2.246-1.28-4.553-1.884-6.788-.945-3.592-1.841-7.4-2.468-11.344a87.165 87.165 0 01-.874-7.7c-.441-6.595-.132-13.218.927-19.236a1.116 1.116 0 00-.914-1.283 1.11 1.11 0 00-1.28.911z"/><path d="M15.346 54.613a9.085 9.085 0 01-.75-.506c-.914-.664-1.774-1.442-2.555-2.015a212.252 212.252 0 01-5.004-3.798 216.713 216.713 0 01-4.889-3.95.732.732 0 00-.961 1.101 222.493 222.493 0 004.731 4.21 208.458 208.458 0 004.863 4.072c.882.717 1.87 1.718 2.928 2.504a8.415 8.415 0 001.615.96c.022.01.917.267 1.474-.519.18-.25.61-.88.641-.923a30.427 30.427 0 001.773-2.993c1.532-2.98 2.774-5.977 4.165-8.731a35.452 35.452 0 011.967-3.447 1.589 1.589 0 10-2.695-1.684 38.082 38.082 0 00-1.966 3.846c-1.264 2.814-2.362 5.863-3.753 8.91-.22.479-.456.954-.707 1.426-.25.469-.513.934-.79 1.395l-.087.142z"/><path d="M9.28 2.17a74.296 74.296 0 00-2.754 17.49 69.306 69.306 0 00.137 7.603c.18 2.532.499 5.051.967 7.549a62.285 62.285 0 005.694 16.809c.12.236.41.326.64.204a.477.477 0 00.204-.644 60.958 60.958 0 01-5.99-16.477A61.903 61.903 0 017.09 27.23a65.348 65.348 0 01-.18-7.557C7.108 13.846 8.075 8.007 9.703 2.29a.222.222 0 00-.15-.27.223.223 0 00-.273.15zM16.47 49.261c1.137-2.035 2.181-3.754 3.432-5.231 1.252-1.477 2.717-2.671 4.687-3.701.576-.34.765-1.085.422-1.66a1.21 1.21 0 00-1.659-.424c-1.659 1.11-2.949 2.298-4.029 3.65-1.533 1.922-2.656 4.138-3.85 6.869a.558.558 0 00.997.497z"/></svg>