<svg xmlns="http://www.w3.org/2000/svg" width="1063" height="1080" fill="#1c4085" fill-rule="evenodd" xmlns:v="https://vecta.io/nano"><path d="M696.866 991.823c-25.202-38.933-100.712-159.204-82.568-276.857 6.039-39.128 16.485-75.134 40.881-103.648 6.537-7.649 12.577-19.184 21.886-20.093 1.113-.109.047 2.558-.119 3.817-.521 4.102-1.113 8.202-1.918 12.239-3.435 16.943-8.03 33.593-10.849 50.683-6.276 37.953.877 79.005 18.404 111.974 18.167 34.134 43.558 60.374 74.515 78.715 9.948 5.887 20.446 13.123 30.122 18.349 11.464 4.368 58.107 29.976 58.107 29.976s-9.095 18.281-12.553 22.079c-8.74 9.523-17.788 16.306-27.073 25.096-9.285 8.818-20.18 16.55-30.081 24.418-21.269 16.849-41.331 34.349-54.429 38.279-8.835 2.66-21.578-10.795-24.325-15.027zM99.556 835.002c52.694 84.401 119.439 147.545 207.899 190.298 36.913 17.85 82.18 27.82 121.819 37.16 0 0 .059-.87 2.873-1.47-33.861-117.754-24.559-235.958 11.435-352.335 12.828-41.544 37.18-85.439 69.383-114.832 48.525-44.257 121.521-58.919 184.741-47.218 31.907 5.901 71.752 20.311 90.772 49.808 15.138 23.539 5.984 25.509 6.843 53.12.059 1.811 2.459-2.638 3.673-3.982 2.252-2.518 4.74-4.845 6.696-7.599 5.776-8.093 12.768-15.635 16.471-24.883 11.939-29.847 16.027-60.38 6.518-91.087-4.977-16.054-10.458-31.982-17.035-47.44-9.539-22.407-18.604-25.997-23.67-50.503-2.459-11.904 1.955-27.113 7.91-37.182 3.111-5.231 11.524-7.823 11.731-13.913.474-12.249-19.878-31.818-26.633-38.865-29.506-30.752-57.028-62.889-96.637-80.365 0 0-.355-2.875-25.003-14l-.207-.423c-24.619-9.23-32.884-16.332-59.576-20.059-97.467-13.611-191.497 2.416-276.461 54.404-64.642 39.559-80.166 63.377-142.586 106.071l.859 1.123c42.956-13.596 38.424-22.823 80.61-39.105 83.543-32.221 169.455-33.323 255.161-9.212 45.237 12.727 51.34 18.73 89.171 46.092 12.532 9.066 28.41 15.422 36.498 28.671 7.495 12.224-11.643 22.198-18.042 27.03-6.073 4.596-13.123 7.772-20.056 10.898l-4.266-36.871c-2.162 3.482-4.325 6.991-6.991 10.111-4.326 5.102-8.295 10.847-13.894 14.485-17.301 11.23-43.431 10.751-61.265 1.254-14.368-7.659-22.071-18.47-25.3-34.745-1.481-7.389.03-15.081.415-22.605.326-5.769 1.007-11.515 1.688-17.251-14.605-.465-29.24-.929-43.785.239-46.275 3.713-80.284 8.231-123.3 21.82C216.714 416.809 126.239 496.423 64.82 595.276l-1.689 3.544c-14.285 18.366-43.039 64.5-43.039 64.5 4.1 15.623 8.662 32.341 14.208 47.506 16.481 45.072 25.673 62.045 52.259 108.407l12.997 15.769zm291.086-90.116c10.547-73.859 35.136-156.072 94.238-195.808 26.04-17.485 41.979-25.521 71.693-32.44 7.939-1.844 16.145-2.102 24.263-2.048 7.618 1.042 11.287 5.623 12.649 1.042 1.926-6.419-4.325-14.455-8.058-17.518-4.977-4.105-9.626-7.629-14.958-11.117-3.229-2.129-7.053-5.754-10.756-5.733-4.77.03-8.71 4.389-13.154 6.353-16.679 7.383-26.455 13.758-45.119 9.59-13.39-2.997-32.676-16.317-41.979-27.674-3.169-3.862-2.873-10.458-6.102-14.245-1.126-1.309-3.052 1.012-4.474 1.844-4.68 2.782-9.45 5.467-13.716 8.97-18.16 14.809-35.402 29.512-45.652 53.279-10.547 24.491-16.027 63.224-17.064 90.227-1.778 45.883-2.489 94.559 17.064 136.649l1.125-1.371z"/><path d="M516.296 394.925c-9.594-12.984-8.92-16.54-7.511-33.806.469-5.687.939-12.112 7.1-14.271 5.574-1.96 13.936 2.061 19.159 4.154 12.704 5.115 25.261 11.855 36.674 19.449 5.076 3.368 11.031 6.822 14.493 12.02 7.218 10.776-7.98 24.91-16.84 28.611-19.335 8.092-34.503-.297-49.731-13.331l-3.344-2.826zm32.713 4.723c-1.701.38-3.99-.634-5.926-1.334-3.257-1.183-6.602-2.826-8.714-5.732-2.142-2.932-3.052-6.558-3.257-10.155-.205-3.582-.029-9.308 3.667-11.188 1.907-.966 4.255-.619 6.22-.106 2.494.649 4.607 2.244 6.778 3.587 2.582 1.599 5.222 2.933 7.54 4.937 1.203 1.041 3.11 2.832 3.433 4.487.293 1.485.587 3.531-.03 4.86-1.32 2.947-2.64 5.019-4.43 7.323 0 0-3.579 2.942-5.281 3.321zM431.59 1079.67C211.95 1055.62 0 816.295 0 546.153 0 244.723 236.805 0 528.493 0S1063 239.348 1063 546.153c0 286.028-195.076 437.383-287.344 484.257-17.568 10.08-13.628 8.7-33.092 11.96-4.71.78-24.559-18.9-32.676-31.64l-14.013-22.515 10.843-4.679c175.38-69.123 286.741-239.588 286.741-444.953 0-265.668-208.709-481.359-465.795-481.359S61.851 272.915 61.851 538.583c0 228.688 152.61 420.147 359.66 469.077 4.858 22.22 13.308 40.05 15.678 55.29 1.452 9.42-4.681 16.82-5.599 16.72z"/></svg>