<svg xmlns="http://www.w3.org/2000/svg" fill="none" viewBox="101.73 41 867.53 762.25"><defs/><path stroke="#19BDAC" stroke-width="50" d="M549.356 74l392.743 680.25c6.158 10.667-1.54 24-13.857 24H142.757c-12.316 0-20.014-13.333-13.856-24L521.644 74c6.158-10.667 21.554-10.667 27.712 0z"/><path fill="#000" d="M693.566 621.934H541.433a5.433 5.433 0 00-5.433 5.433v65.2a5.433 5.433 0 005.433 5.433h152.133a5.433 5.433 0 005.434-5.433v-65.2a5.434 5.434 0 00-5.434-5.433zm-5.433 65.2H546.866V632.8h141.267v54.334z"/><path fill="#000" d="M693.566 551.3h-70.633V534a16.201 16.201 0 000-30.6v-22.733H682.7a5.434 5.434 0 005.433-5.434v-43.466c0-.087-.103-.783-.158-1.054a5.166 5.166 0 00-.195-.777 8.982 8.982 0 00-.326-.69 5.209 5.209 0 00-.424-.707 5.852 5.852 0 00-.543-.581 5.347 5.347 0 00-.582-.544 5.859 5.859 0 00-.706-.423 9.936 9.936 0 00-.69-.326 5.125 5.125 0 00-.783-.196c-.244-.033-.939-.136-1.026-.136h-42.728l-194.883-54.132a5.272 5.272 0 00-1.391-.201h-.065c-.092 0-.179.038-.271.043a5.275 5.275 0 00-1.131.169c-.173.049-.331.109-.494.168-.301.112-.59.252-.864.419a4.84 4.84 0 00-.456.293c-.087.06-.18.098-.267.169l-65.199 54.333c-.066.054-.636.76-.864 1.086a5.565 5.565 0 00-.544.81 10.639 10.639 0 00-.494 2.054c0 .081-.049.152-.049.233v43.467c0 .087.033.163.038.25.019.271.059.54.12.804.045.264.11.523.195.777 0 .082 0 .169.06.25.071.163.185.288.266.44.122.246.264.483.424.706.168.206.349.401.543.582.18.195.375.377.582.543.225.158.461.3.706.424.152.081.277.196.44.266a.38.38 0 01.201.038 5.387 5.387 0 001.858.343h38.034v211.899c0 .087.032.163.038.25.018.271.058.54.119.804.045.264.111.524.196.777.027.082.027.169.06.25.032.082.184.288.266.44.122.247.264.483.424.707.167.206.349.4.543.581.18.195.374.377.581.543.225.158.461.3.707.424.152.082.277.196.44.266.065.028.136 0 .201.038a5.366 5.366 0 001.858.354h43.467a5.434 5.434 0 005.433-5.434V567.6h27.167a5.434 5.434 0 005.433-5.434v-81.499h108.666V503.4a16.195 16.195 0 00-10.871 15.3 16.204 16.204 0 0010.871 15.3v17.3h-70.633a5.433 5.433 0 00-5.433 5.433v21.733a5.433 5.433 0 005.433 5.434h152.133a5.434 5.434 0 005.434-5.434v-21.733a5.434 5.434 0 00-5.434-5.433zm-215.083-81.5l24.917-24.917V469.8h-24.917zm-43.467 0l24.917-24.917V469.8h-24.917zm160.75-43.467H469.045l-16.3-40.723 146.629 40.723h-3.608zM427.333 437.2h24.917l-24.917 24.917V437.2zm2.592-10.867l13.708-34.273 13.709 34.273h-27.417zM470.8 437.2h24.917L470.8 462.117V437.2zm-52.578-10.867H393.44l37.153-30.97-12.371 30.97zM383.867 437.2h24.917l-24.917 24.917V437.2zm130.399 0h24.918l-24.918 24.917V437.2zm43.467 0h24.917l-24.917 24.917V437.2zm43.467 0h24.917L601.2 462.117V437.2zm76.066 32.6h-24.917l24.917-24.917V469.8zm-32.6-7.683V437.2h24.918l-24.918 24.917zm-228.199-17.234V469.8h-24.918l24.918-24.917zm43.466 198.783h-24.917l24.917-24.917v24.917zm-32.6-7.682v-24.918h24.917l-24.917 24.918zm0 18.549h24.917l-24.917 24.917v-24.917zm32.6-54.333h-24.917l24.917-24.918V600.2zm-32.6-7.683V567.6h24.917l-24.917 24.917zm32.6 94.616h-24.917l24.917-24.917v24.917zm5.434-130.4h-38.034v-76.066H438.2v59.766c.003.713.145 1.418.418 2.076a5.435 5.435 0 002.94 2.939 5.476 5.476 0 002.075.418h48.9v10.867h-27.166zM492.533 535h-14.05l7.025-7.025a5.436 5.436 0 00-.066-7.617 5.434 5.434 0 00-7.617-.066L463.117 535h-6.368l17.892-17.892a5.434 5.434 0 00-7.682-7.683l-17.892 17.892v-46.65h43.466V535zm54.333-90.117V469.8h-24.917l24.917-24.917zm43.467 0V469.8h-24.917l24.917-24.917zm43.467 0V469.8h-24.918l24.918-24.917zm-16.3 68.383a5.432 5.432 0 015.329 6.494 5.435 5.435 0 01-10.763-1.06 5.434 5.434 0 015.434-5.434zm70.633 59.767H546.866v-10.867h141.267v10.867z"/><path fill="#000" d="M563.166 676.264H584.9a5.433 5.433 0 005.433-5.433v-21.734a5.433 5.433 0 00-5.433-5.433h-21.734a5.433 5.433 0 00-5.433 5.433v21.734a5.433 5.433 0 005.433 5.433zm5.434-21.733h10.866v10.866H568.6v-10.866zM606.633 676.264h21.733a5.433 5.433 0 005.434-5.433v-21.734a5.434 5.434 0 00-5.434-5.433h-21.733a5.433 5.433 0 00-5.433 5.433v21.734a5.433 5.433 0 005.433 5.433zm5.433-21.733h10.867v10.866h-10.867v-10.866zM650.1 676.264h21.733a5.433 5.433 0 005.433-5.433v-21.734a5.433 5.433 0 00-5.433-5.433H650.1a5.433 5.433 0 00-5.434 5.433v21.734a5.434 5.434 0 005.434 5.433zm5.433-21.733H666.4v10.866h-10.867v-10.866z"/></svg>