<svg width="1681" height="1927" viewBox="0 0 1681 1927" fill="none" xmlns="http://www.w3.org/2000/svg">
<circle cx="840.5" cy="1074.5" r="824" fill="#E2FADB" stroke="#242F40" stroke-width="33"/>
<path fill-rule="evenodd" clip-rule="evenodd" d="M1201.4 390.674C1197.61 341.667 1203.48 290.302 1184.59 243.721C1151.64 166.435 1059.26 140.665 987.637 111.241C958.944 102.763 862.396 101.578 828.8 90.3564C752.765 64.9604 734.598 34.7025 674.181 83.0573C663.982 91.3176 657.602 100.295 652.947 112.561L653.138 112.614C651.809 117.727 653.234 122.83 656.229 126.727C630.033 153.504 619.071 193.648 632.512 229.292C676.374 322.047 674.312 372.199 660.179 471.915C641.723 565.007 683.897 599.012 753.741 649.664C750.897 655.177 750.307 662.505 754.015 667.37C834.779 780.863 987.061 835.051 1117.54 777.446C1170.5 753.873 1194.14 697.472 1207.64 646.579C1223.36 589.594 1228.19 529.547 1215.39 471.499C1210.23 444.653 1203.5 418.001 1201.4 390.674Z" fill="white"/>
<path fill-rule="evenodd" clip-rule="evenodd" d="M1489.48 1894.9C1520.29 1893.41 1507.9 1839.53 1505.68 1819.74C1481.29 1747.46 1487.03 1668.6 1477.44 1592.84C1471.46 1522.11 1463.78 1451.61 1457.32 1380.94C1444.64 1237.49 1353.54 945.454 1249.59 898.489C1236.49 841.031 1182.41 787.394 1113.97 787.394C1067.3 732.146 1011.12 693.265 939.069 701.115C909.292 702.47 880.415 734.051 851.883 740.15C835.908 742.353 694.135 736.683 665.736 753.549C645.954 763.706 628.096 782.476 633.913 806.372C643.193 835.323 614.353 803.997 554.189 834.897C431.508 908.578 504.818 1007.15 508.066 1010.2C431.508 1116.72 364.593 1203.13 333.632 1333.33C313.566 1429.99 315.825 1529.77 299.013 1626.93C293.077 1660.62 283.97 1693.15 274.116 1725.87C263.436 1768.68 258.242 1875.39 252.356 1876.35C241.633 1879.01 274.116 1893 269.915 1901.04C584.933 1953.3 904.915 1903.21 1221.63 1895.03C1310.88 1891.92 1400.23 1891.21 1489.48 1894.9Z" fill="white"/>
<path fill-rule="evenodd" clip-rule="evenodd" d="M1011.83 1019.81C1011.98 1018.37 1013.92 1018.37 1014.07 1019.81L1016.29 1041.28C1019 1067.5 1021.61 1093.67 1023.49 1120.02C1025.85 1152.87 1027.42 1185.71 1028.18 1218.64C1030.83 1333.31 1031.36 1448.04 1031.58 1562.73C1047.09 1561.66 1062.6 1560.63 1078.12 1559.62C1088.65 1558.94 1099.18 1558.29 1109.72 1557.65L1136.57 1556.02L1147.63 1555.34C1155.1 1554.88 1163.59 1553 1168.81 1559.62C1170.9 1562.27 1171.95 1565.71 1170 1568.86C1165.51 1576.11 1158.6 1575.86 1150.79 1576.17C1143.42 1576.47 1136.04 1576.76 1128.67 1577.04C1112.88 1577.66 1097.08 1578.24 1081.28 1578.68C1064.7 1579.14 1048.13 1579.52 1031.56 1579.8C1031.39 1628.23 1029.38 1676.59 1027.22 1724.95L1026.24 1746.72C1023.59 1805.58 1020.74 1864.49 1016.68 1923.28C1016.35 1928.09 1009.54 1928.08 1009.21 1923.28C1004.65 1857.08 1001.64 1790.74 998.659 1724.45C996.494 1676.39 995.233 1628.31 994.635 1580.23C992.443 1580.25 990.253 1580.28 988.063 1580.29C925.853 1580.56 863.657 1580.83 801.449 1580.24C801.552 1580.37 801.654 1580.49 801.723 1580.65C806.224 1591.28 806.652 1604.84 806.543 1616.25C806.417 1629.33 804.656 1642.25 801.643 1654.97C790.848 1700.54 763.007 1741.36 731.299 1775.1L730.264 1776.2C722.785 1784.1 714.204 1792.04 709.612 1802.11C704.921 1812.39 703.292 1824.41 700.977 1835.45L700.706 1836.72L691.657 1878.53C688.781 1891.81 687.965 1911.17 677.454 1920.75C667.648 1929.69 654.656 1925.02 650.042 1913.51C646.436 1904.53 650.027 1894.67 652.162 1885.69L668.885 1815.39C671.631 1803.93 674.634 1792.39 680.566 1782.09C686.64 1771.54 695.545 1763.9 704.634 1756.07C721.841 1741.26 737.638 1724.3 750.998 1705.93C764.352 1687.58 775.766 1667.34 783.769 1646.07C787.777 1635.41 791.06 1624.35 793.326 1613.19C795.479 1602.61 795.46 1591.64 797.762 1581.17C797.921 1580.45 798.532 1579.95 799.231 1579.73C799.066 1579.26 799.317 1578.63 799.973 1578.59L850.849 1575.32C896.075 1572.41 941.297 1569.41 986.482 1565.99L994.468 1565.42C993.846 1501.27 994.374 1437.1 995.533 1372.93C996.594 1314.08 996.617 1255.21 998.367 1196.37C999.237 1167.16 1001.11 1138.03 1003.2 1108.88C1005.34 1079.08 1008.76 1049.53 1011.83 1019.81ZM534.111 1361.04C533.569 1357.77 537.68 1355.74 539.576 1358.73C561.24 1392.88 571.686 1429.97 576.088 1469.93C579.978 1505.2 578.832 1540.98 576.895 1576.34C574.829 1614.05 572.419 1651.76 569.982 1689.45L566.237 1747.25L556.84 1892.17C556.168 1902.53 553.815 1911.96 544.89 1916.78C543.76 1917.72 542.582 1918.57 541.209 1919.3C536.388 1921.88 529.992 1920.57 527.204 1915.63L528.323 1916.36C529.297 1916.98 528.204 1916.12 525.041 1913.8L522.359 1910.32C520.409 1907.39 519.164 1904.51 518.664 1901.03C517.886 1895.62 518.893 1889.68 519.247 1884.24L525.406 1789.22C530.196 1715.35 535.79 1641.5 540.006 1567.59C541.97 1533.14 543.345 1498.66 542.415 1464.15C541.487 1429.84 539.738 1394.94 534.111 1361.04ZM721.527 724.932L722.729 724.729C765.76 717.582 812.551 718.919 851.877 739.662C852.203 739.833 852.054 740.373 851.689 740.357L839.033 739.852C798.96 738.283 759.011 737.354 719.61 746.768L715.577 747.741C701.387 751.201 686.569 755.438 675.171 764.809C664.278 773.768 658.853 787.586 653.638 800.308L652.941 801.987C647.649 814.553 640.951 826.468 629.351 834.325C614.327 844.5 596.259 843.253 579.033 844.635C548.701 847.072 523.903 869.054 511.565 895.953C504.094 912.241 500.908 930.502 500.276 948.314C499.953 957.382 499.907 966.804 501.115 975.812C501.501 978.693 505.062 989.186 506.877 988.934C510.912 988.375 514.6 990.479 515.858 993.704C525.824 984.076 536.077 974.725 546.659 965.711C573.039 943.246 601.453 922.886 631.376 905.39C654.213 892.035 678.302 878.805 703.247 868.802C701.27 868.761 699.321 869.153 697.435 870.133C696.61 870.565 695.789 869.529 696.441 868.844C704.298 860.577 713.709 859.401 723.196 861.605C725.221 860.961 727.247 860.338 729.281 859.746C730.293 859.452 730.797 860.846 729.971 861.385L727.64 862.874C737.99 866.341 748.152 873.155 756.197 878.534C779.308 893.978 799.649 912.859 820.269 931.387L824.019 934.745C842.17 950.952 860.783 966.701 881.404 979.702C892.198 986.507 903.537 992.801 915.43 997.483C925.63 1001.5 942.238 1004.03 947.015 1014.81C951.262 1019.97 949.488 1026.55 944.514 1030.03C936.126 1039.26 919.348 1033.29 909.353 1029.45C897.304 1024.81 885.631 1019.24 874.498 1012.71C852.885 1000.02 832.956 984.243 814.392 967.461C795.004 949.933 776.716 931.313 757.858 913.236C749.689 905.403 741.706 897.386 733.524 889.564L729.413 885.672C725.237 881.755 719.286 875.65 712.924 871.955C700.939 879.104 688.769 885.959 676.891 893.293C660.312 903.53 644.22 914.504 628.377 925.841C597.877 947.665 568.974 972.108 542.142 998.307C492.931 1046.35 451.005 1101.22 414.379 1159.32L411.599 1163.74C390.786 1197 371.103 1231.32 357.147 1268.06C341.792 1308.5 334.324 1351.01 330.267 1393.93C326.241 1436.54 324.882 1479.37 320.383 1521.94C315.768 1565.61 306.676 1608.3 296.333 1650.92L293.868 1661.03C284.509 1699.19 274.851 1737.36 270.04 1776.43C267.472 1797.3 265.927 1818.45 266.277 1839.49C266.627 1860.65 269.952 1881.34 272.635 1902.28C273.663 1910.3 268.063 1917.94 261 1919C252.877 1920.22 243.605 1914.1 241.08 1906.55C233.208 1883.03 231.779 1857.03 232.026 1832.34C232.274 1807.27 235.474 1782.37 239.975 1757.73C248.828 1709.28 262.491 1661.83 273.92 1613.95C283.993 1571.75 290.753 1529.48 294.397 1486.25C298.179 1441.41 300.444 1396.41 307.345 1351.88C314.156 1307.92 326.972 1265.94 346.3 1225.85C363.898 1189.36 385.835 1155.01 408.834 1121.72C436.762 1081.29 467.436 1042.82 501.724 1007.76C498.644 1007.63 495.482 1006.63 492.577 1004.82C483.692 999.281 479.554 988.44 478.282 978.541C475.304 955.385 476.023 931.21 481.979 908.57C491.586 872.047 516.52 839.596 552.656 826.431C561.957 823.042 571.845 821.805 581.703 821.561C591.056 821.329 601.272 822.548 610.298 819.583C624.665 814.862 630.822 797.943 636.217 785.117L636.464 784.527C643.38 768.184 651.682 754.176 666.663 743.971C682.646 733.08 702.672 728.129 721.527 724.932ZM1130.39 789.566C1143.32 785.081 1159.49 789.152 1172.13 793.07C1186.22 797.437 1199.24 805.481 1210.4 815.034C1222.18 825.108 1231.91 837.548 1238.78 851.445L1239.44 852.782C1245.72 865.673 1252.87 883.37 1249.71 897.533C1249.62 897.934 1249.51 898.322 1249.39 898.696C1275.05 911.326 1298.74 927.145 1319.38 947.195C1343.4 970.539 1363.74 997.104 1380.96 1025.8C1449.33 1139.79 1461.37 1276.68 1469.44 1406.67L1471.46 1439.63C1475.84 1510.8 1480.97 1581.81 1494.3 1652L1495.28 1657.06C1509.52 1730.55 1529.92 1804.6 1527.85 1879.99C1527.23 1902.58 1493.85 1902.42 1492.88 1879.99C1489.24 1795.55 1469.54 1714.02 1456.19 1630.9C1432.71 1484.66 1444.48 1333.9 1411.21 1189.13C1398.16 1132.31 1377.93 1077.2 1349.05 1026.49C1334.79 1001.44 1318.47 977.228 1299.35 955.614C1282.9 937.017 1265.8 919.119 1246.58 903.485C1240.44 909.638 1228.16 906.502 1224.96 897.533C1222.75 891.369 1223.4 884.162 1221.98 877.705C1220.67 871.713 1218.86 865.772 1216.45 860.129C1211.65 848.883 1204.6 838.084 1196.45 828.982C1187.66 819.143 1177.55 810.969 1166.24 804.22C1154.86 797.425 1142.4 795.396 1130.39 790.43C1129.99 790.263 1129.95 789.721 1130.39 789.566ZM1180.63 1571.11C1180.65 1570.52 1181.35 1570.24 1181.78 1570.63C1186.31 1574.8 1189.05 1580.79 1192.39 1585.92C1196.24 1591.84 1200.28 1597.63 1204.51 1603.28C1213 1614.59 1222.46 1625.25 1231.98 1635.7C1240.84 1645.41 1250.28 1654.72 1260.08 1663.49C1270.69 1672.99 1282.58 1681.47 1292.23 1692C1312.35 1713.95 1315.6 1744.09 1319.84 1772.39L1320.31 1775.45C1322.9 1792.25 1325.22 1809.09 1327.31 1825.95C1328.32 1834.15 1329.34 1842.36 1330.17 1850.59L1330.42 1853.19C1331.16 1861.24 1331.36 1869.41 1326.73 1876.45C1321.79 1883.97 1310.53 1886.61 1303.84 1879.39C1292.35 1867 1294.5 1844.98 1293.01 1829.03C1291.77 1815.84 1290.37 1802.67 1288.8 1789.52L1288 1782.94C1286.16 1767.98 1284.65 1752.72 1281.23 1738.02C1278.21 1725.07 1272.46 1715.3 1263.03 1705.92C1253.53 1696.48 1243.65 1687.66 1234.88 1677.48C1225.58 1666.69 1217.18 1655.12 1209.62 1643.04C1203.15 1632.71 1197.97 1621.47 1193.22 1610.24L1192.43 1608.37C1187.84 1597.43 1180.27 1583.17 1180.63 1571.11ZM1346.59 1100.8C1346.69 1099.27 1348.95 1099.25 1348.98 1100.8C1349.26 1113.93 1349.54 1127.07 1349.81 1140.21C1352 1246.05 1350.65 1352.15 1361.27 1457.63C1366.28 1507.37 1375.5 1556.37 1386.18 1605.17C1391.64 1630.14 1397.37 1655.05 1402.81 1680.03C1408.11 1704.37 1413.8 1728.82 1418.01 1753.39C1422.15 1777.53 1425.85 1801.86 1427.51 1826.32L1427.72 1829.51C1428.43 1841.35 1431.85 1858.77 1425.33 1869.27C1418.26 1880.65 1404.73 1880.85 1397.15 1869.99C1390.04 1859.8 1391.81 1841.67 1390.55 1829.51C1389.28 1817.12 1387.93 1804.72 1386.39 1792.35C1383.4 1768.24 1379.46 1744.18 1375.36 1720.23C1366.82 1670.36 1354.44 1621.11 1345.29 1571.32C1335.92 1520.3 1329.26 1468.91 1328.98 1416.96C1328.7 1364.57 1334.25 1312.28 1337.05 1260C1339.89 1206.91 1343.13 1153.86 1346.59 1100.8ZM846.572 771.579C849.415 762.01 859.444 756.028 869.228 758.715C878.195 761.18 885.597 772.062 882.092 781.373C878.266 791.533 871.581 800.197 865.945 809.431C860.739 817.964 853.145 824.683 847.841 833.064L853.685 839.365C856.61 842.507 859.541 845.631 862.506 848.701L872.7 859.26C880.638 867.466 888.628 875.628 896.84 883.548C920.993 906.845 945.528 929.377 972.577 949.327C978.735 953.867 984.94 958.382 991.32 962.609L993.698 964.185C998.075 967.051 1002.96 969.868 1008.24 969.382C1021.09 968.202 1032.7 954.559 1041.53 946.068L1041.99 945.625C1063.87 924.808 1084.13 902.049 1101.84 877.577C1105.77 872.14 1109.58 866.61 1113.29 861.015C1104.72 851.013 1106.77 831.487 1106.3 819.357C1105.96 810.827 1105.94 802.296 1105.89 793.76L1105.87 792.039C1105.76 786.514 1105.52 781.215 1109.1 776.669C1109.31 776.406 1109.74 776.414 1110.01 776.553C1114.92 779.127 1116.43 783.436 1118.53 788.269L1118.75 788.769C1121.3 794.57 1123.74 800.425 1126.21 806.259C1128.8 812.367 1131.17 818.565 1133.57 824.746C1134.69 827.622 1135.76 830.509 1136.8 833.411C1137.44 835.265 1138.1 837.11 1138.77 838.951L1138.93 839.093C1139.83 839.85 1140.58 840.65 1141.23 841.476C1143.97 842.847 1146.15 845.344 1147.17 849.014C1149.4 857.001 1144.8 863.515 1140.69 869.854C1124.02 895.614 1105.01 920.16 1083.88 942.427C1073.39 953.49 1062.35 964.055 1050.86 974.076L1048.85 975.817C1038.52 984.689 1027.31 993.093 1013.53 995.169C997.391 997.598 984.258 989.572 971.908 980.33L970.674 979.4C958.964 970.536 947.49 961.361 936.373 951.763C913.708 932.195 892.146 911.184 873.009 888.133C854.394 865.711 835.994 840.64 824.521 813.661C823.821 812.018 825.66 810.298 827.101 811.671C832.706 817.006 838.099 822.631 843.427 828.328C843.576 819.942 842.028 811.484 842.889 803.045C843.939 792.788 843.636 781.456 846.572 771.579Z" fill="black"/>
<path fill-rule="evenodd" clip-rule="evenodd" d="M1083.68 518.99C1095.72 526.306 1114.06 543.367 1101.11 561.507C1085.86 577.5 1063.92 559.163 1053.1 550.869C1043.08 544.442 1031.81 560.973 1041.11 568.478C1119.26 626.333 1150.97 520.903 1089.77 510.387C1083.03 509.228 1080.52 516.726 1083.68 518.99ZM943.641 467.629C944.972 451.121 970.113 447.372 972.614 463.707C974.853 478.341 972.217 491.783 965.625 504.958C959.327 517.544 943.499 511.673 942.302 500.212C940.696 484.849 942.813 477.899 943.641 467.629ZM1135.03 460.322C1138.53 455.731 1143.59 452.597 1149.66 454.368C1168.6 459.904 1163.02 486.8 1156.36 499.89C1152.75 507.001 1141.06 508.804 1135.78 502.543C1127.17 492.336 1123.05 471.95 1133.99 461.895C1134.29 461.375 1134.62 460.851 1135.03 460.322ZM965.359 395.395L968.351 394.871C977.609 393.269 989.12 391.731 995.67 399.175C999.143 403.122 1000.34 410.457 995.67 414.235C987.457 420.882 978.378 418.306 968.536 418.869C960.426 419.334 952.631 420.677 944.819 422.91C927.68 427.808 913.714 436.751 899.076 446.57C897.156 447.858 895.195 445.402 896.111 443.605C904.561 427.054 920.937 413.459 937.339 405.172C946.094 400.748 955.674 397.079 965.359 395.395ZM1117.76 387.98L1120.05 388.449C1144.97 393.659 1177.36 404.067 1189.16 428.551C1189.61 432.013 1189.14 432.755 1188.75 433.239L1188.62 433.402C1188.3 433.815 1188.05 434.385 1186.55 434.857C1186.13 434.758 1185.71 434.653 1185.29 434.541C1179.88 433.123 1175.59 431.17 1171.45 429.143L1166.96 426.928C1161.74 424.373 1156.48 421.91 1150.91 420.092C1139.02 416.212 1126.78 413.478 1114.36 412.019C1111.66 411.704 1109.07 410.794 1107.02 409.236C1105.08 407.759 1103.6 405.71 1102.92 402.991C1102.05 399.468 1102.3 396.803 1104.19 393.626C1105.61 391.24 1107.64 389.587 1109.97 388.637C1112.35 387.669 1115.06 387.441 1117.76 387.98Z" fill="black"/>
<path fill-rule="evenodd" clip-rule="evenodd" d="M1116.79 688.098C1102.4 676.57 1097.5 676.332 1070.91 678.707C1066.28 684.435 1060.87 691.309 1053.5 694.091C1043.7 697.789 1033.32 687.814 1029.54 679.948C1013.46 636 1070.22 620.933 1103.25 626.533C1119.53 632.26 1132.58 657.898 1133.97 671.545C1134.88 680.718 1127.71 694.624 1116.79 688.098ZM1217.44 614.179C1217.28 613.593 1217.07 613.066 1216.82 612.591C1210.6 610.6 1205.89 613.174 1203.13 617.685C1203.28 618.764 1203.66 619.847 1203.91 620.913C1201.85 625.843 1200.07 631.905 1197.15 636.22C1196.54 636.298 1195.9 636.265 1195.28 636.118C1143.84 644.029 1166.44 589.044 1113.34 578.279C1072.48 573.631 999.594 584.851 982.537 627.709C970.754 695.403 891.776 652.529 864.884 618.95C836.46 588.585 817.182 550.718 798.583 513.969C794.653 506.191 783.887 512.421 785.464 519.992C771.504 551.607 773.844 588.641 771.676 622.63C768.476 690.384 766.78 785.263 831.871 823.331C918.582 911.553 1125.36 934.007 1215.96 844.559C1245.31 772.87 1237.05 687.581 1217.44 614.179Z" fill="black"/>
<path fill-rule="evenodd" clip-rule="evenodd" d="M605.579 49.8218C611.027 49.8824 680.72 -0.820396 754.844 0.010092C794.484 0.453231 866.11 67.9619 861.097 71.1085C856.649 73.898 852.058 74.44 847.898 73.4039C847.165 74.3922 846.432 75.3805 845.73 76.3847C851.756 81.2784 857.191 86.8575 861.862 93.0423C875.921 90.9382 890.06 89.9499 904.199 89.918C921.478 81.4537 942.169 81.629 960.739 84.8012C972.694 86.8415 984.171 90.8106 995.935 93.664C1008.34 96.6607 1020.93 96.7723 1033.47 98.8127C1049.29 101.379 1063.16 108.68 1071.87 120.332C1081.45 120.619 1091.53 124.54 1099.88 129.864C1119.33 142.266 1138.66 154.843 1158.06 167.324C1165.51 172.116 1168.29 179.765 1166.92 188.298L1166.83 188.843L1166.18 192.382L1167.71 194.561C1173.65 202.944 1180.11 211.726 1183.95 220.979C1191.06 231.228 1197.48 241.972 1203.17 253.051C1210.84 267.939 1217.17 283.72 1221.46 299.915C1222.53 304.012 1223.59 308.14 1224.3 312.317C1225.3 318.215 1223.75 322.789 1222.91 328.448C1221.86 335.621 1221.47 342.89 1220.36 350.079C1219.61 354.845 1215.56 357.188 1211.32 357.316C1212.91 369.447 1214.06 381.657 1215.16 393.771C1216.71 411.083 1217.76 428.442 1218.67 445.8C1223.36 452.607 1232.94 457.995 1239.85 459.86C1249.43 462.426 1259.48 459.637 1268.53 456.369C1274.22 454.313 1278.89 461.47 1276.12 466.252C1267.4 481.268 1248.75 481.204 1234.62 474.557C1228.65 471.751 1223.4 467.686 1219.51 462.394C1219.75 467.431 1220.01 472.469 1220.26 477.522L1220.5 482.098C1223.37 535.549 1229.57 590.839 1219.53 643.763C1202.14 735.435 1126.28 805.238 1033.6 810.657C984.972 813.503 944.475 799.139 924.336 791.126C904.199 783.112 912.026 766.775 926.005 771.446C950.088 779.491 994.329 791.476 1033.92 786.301C1127.24 774.101 1206.36 727.462 1198.23 526.586C1197.08 498.1 1193.53 469.599 1192.77 441.114C1192.03 413.266 1192.3 385.403 1191.08 357.571L1190.67 348.075C1190.19 336.979 1189.67 325.832 1188.84 314.724C1187.84 310.42 1187.01 306.052 1185.78 301.828C1182.45 290.335 1178.1 279.161 1172.7 268.497C1171.5 269.405 1170.16 270.059 1168.71 270.314C1157.7 272.291 1147.37 271.733 1137.05 267.142C1132.24 265.022 1128 262.2 1124.05 258.71C1122.17 257.068 1120.91 255.474 1119.92 253.816C1114.93 253.896 1109.94 252.397 1106.82 248.811C1103.25 244.724 1102.66 240.501 1104.05 236.592L1104.2 236.202L1103.85 236.074C1099.64 246.962 1091.26 256.542 1082.06 263.013C1067.52 273.279 1049.34 276.244 1031.9 276.515C1012.64 276.802 992.333 273.837 973.332 270.808C968.311 270.011 963.322 269.103 958.428 267.875C958.237 268.066 958.045 268.29 957.838 268.481C941.531 284.086 918.593 288.103 897.903 279.193C885.948 274.044 875.921 265.755 867.058 256.255C866.931 261.228 866.676 266.201 866.245 271.127L866.067 273.083C865.185 282.256 863.486 291.988 856.554 298.608C845.348 309.336 829.089 305.032 816.161 298.05C816.177 298.385 816.177 298.736 816.177 299.086C819.668 310.946 823.175 322.821 826.682 334.697L827.437 337.226C829.988 345.659 832.784 354.102 833.552 362.927C835.018 379.792 823.796 396.449 805.051 390.791C795.217 387.834 787.341 379.565 779.782 372.944L775.019 368.825C787.341 409.106 795.885 450.822 796.682 492.856C796.73 495.136 794.769 496.857 792.601 496.937C787.532 497.144 782.081 496.14 776.98 494.115C776.693 494.099 776.406 494.084 776.103 494.036C767.4 492.776 759.318 489.636 752.193 484.998C753.835 490.21 754.568 495.805 754.137 501.655C754.026 503.074 751.81 503.568 751.491 502.006C747.379 481.778 723.707 466.491 703.304 470.364C681.402 474.525 665.27 493.366 661.317 514.806C657.077 537.84 665.191 564.476 680.222 582.249C687.141 590.442 696.242 597.281 707.05 599.002C711.991 599.783 717.124 599.513 721.922 598.11C723.963 597.504 725.875 596.659 727.82 595.862C730.657 594.714 733.973 594.539 736.651 593.328C742.724 590.602 748.829 596.197 745.753 602.43C743.075 607.865 740.668 611.531 736.221 614.337C739.823 618.736 743.091 624.858 744.302 626.499C750.487 634.852 756.768 642.742 763.813 650.378C770.986 658.125 778.813 665.202 787.086 671.754L790.564 674.502C798.533 680.822 805.471 686.679 811.092 695.744C815.523 702.901 809.785 712.609 801.48 712.497C775.497 712.13 756.608 689.304 743.155 669.363C741.242 666.509 739.441 663.497 737.767 660.404C737.161 661.377 736.492 662.285 735.742 663.114L737.225 667.099C741.624 678.831 722.671 686.499 717.172 675.548C713.171 667.609 708.532 660.054 703.368 652.912C700.323 652.482 697.342 650.633 695.685 648.242C691.492 642.169 686.79 636.032 682.821 629.56C680.621 627.472 678.357 625.463 676.046 623.503C675.377 624.092 674.691 624.682 674.038 625.304C671.136 631.919 667.55 637.96 663.103 643.651L662.149 644.866C653.629 655.603 642.532 666.592 628.799 669.219C624.607 670.016 620.574 664.804 624.288 661.472C633.9 652.833 645.265 646.951 654.128 637.307C658.494 632.555 662.503 627.323 665.951 621.84L666.737 620.57C667.311 619.629 667.901 618.689 668.506 617.732C664.505 615.006 660.504 612.265 656.503 609.523C645.489 618.932 631.146 623.238 618.964 631.033L617.753 631.823C606.738 639.188 595.133 622.897 603.964 613.954C613.699 604.134 621.825 592.422 630.449 581.506C626.394 574.037 624.475 565.204 623.756 556.278C623.472 553.751 623.25 551.223 623.029 548.695C616.844 548.791 610.627 546.67 605.367 543.02L603.374 541.601C596.982 543.642 590.272 544.63 583.848 544.455C568.736 544.008 562.551 526.745 572.004 515.826C581.648 504.668 598.529 502.229 611.902 507.649C612.333 507.426 612.779 507.186 613.21 506.947C612.572 504.014 612.714 501.354 613.439 499.017L613.229 497.592C610.288 493.079 608.354 487.927 607.621 482.484C607.041 478.172 607.159 473.898 608.157 469.641C608.488 468.224 609.178 466.756 609.706 465.278C608.619 462.533 607.98 459.696 607.782 456.842C607.477 456.48 607.175 456.109 606.888 455.707C600.252 446.39 601.592 435.164 607.908 427.624C607.937 427.144 607.981 426.664 608.047 426.188C607.677 425.355 607.337 424.515 607.028 423.666C600.857 417.441 596.327 409.951 597.172 400.669C597.668 395.208 599.912 390.292 603.309 386.617C602.707 384.835 602.649 382.771 603.379 381.048C597.958 366.628 598.643 349.261 602.546 333.135C601.685 330.68 601.238 328.018 601.334 325.196C601.78 313.225 612.142 302.226 624.416 302.37C625.893 302.383 627.277 302.576 628.606 302.858L628.624 302.572C629.094 298.979 630.082 295.659 631.525 292.68C630.816 292.423 630.159 292.055 629.583 291.566C621.718 295.761 613.396 298.968 604.67 301.154C598.254 302.76 591.682 295.468 595.67 289.446C597.521 286.651 599.563 284.142 601.763 281.85C598.635 281.868 595.46 282.08 592.248 282.492C586.478 283.242 580.038 279.304 576.292 273.98C506.026 215.162 579.899 49.5333 605.579 49.8218ZM724.122 618.928C722.56 619.262 720.982 619.533 719.404 619.725C719.882 620.904 720.36 622.084 720.822 623.264C722.098 623.981 723.389 624.666 724.68 625.304C724.297 623.136 724.074 620.952 724.122 618.928ZM642.226 594.592L641.166 596.543C640.993 596.863 640.824 597.179 640.659 597.488C642.906 597.313 645.17 597.361 647.401 597.616L647.395 597.378C647.108 597.281 646.821 597.192 646.547 597.058C645.007 596.318 643.576 595.489 642.226 594.592ZM686.487 505.561C700.589 506.383 712.538 508.545 725.364 514.713L726.465 515.252C737.799 520.879 756.544 531.272 754.966 546.176C754.52 550.416 751.444 554.88 746.598 554.545C733.319 553.636 725.732 540.247 716.742 531.894C707.672 523.477 696.529 514.822 685.546 509.036C683.994 508.221 684.606 505.643 686.294 505.561H686.487ZM622.535 309.192C619.155 309.304 620.287 312.588 622.025 309.846C622.168 309.623 622.343 309.4 622.535 309.192ZM804.949 89.9786C772.944 90.8202 740.733 109.717 716.758 128.819C695.9 145.436 677.889 165.202 661.941 186.506C657.838 197.116 654.315 207.948 651.339 218.859C649.378 226.064 648.151 233.349 646.509 240.617L645.999 242.846C644.709 245.256 643.751 247.849 643.053 250.529C645.959 253.443 649.729 255.529 653.88 256.519C655.217 256.838 656.328 257.528 657.206 258.443C660.547 252.867 663.468 246.982 665.167 240.743L665.229 240.455C671.651 229.936 678.627 219.744 686.104 209.9C706.731 182.722 729.446 157.951 756.752 137.34C777.458 121.719 800.603 109.477 825.215 101.523C819.191 96.6623 812.35 92.8175 804.949 89.9786Z" fill="black"/>
<path d="M1045.97 651.175C1067.32 661.134 1097.65 668.551 1117.62 651.371" stroke="black" stroke-width="0.00688999" stroke-miterlimit="1.5" stroke-linecap="round" stroke-linejoin="round"/>
</svg>
