<svg width="1544" height="1752" viewBox="0 0 1544 1752" fill="none" xmlns="http://www.w3.org/2000/svg">
<path d="M266.402 1224.43V1245.27H264.572V1195.94H279.987C285.024 1195.94 288.931 1197.22 291.709 1199.77C294.51 1202.3 295.91 1205.83 295.91 1210.35C295.91 1214.81 294.544 1218.27 291.811 1220.71C289.101 1223.15 285.239 1224.39 280.225 1224.43H266.402ZM266.402 1222.61H279.987C284.437 1222.61 287.892 1221.54 290.354 1219.39C292.838 1217.24 294.081 1214.25 294.081 1210.41C294.081 1206.43 292.838 1203.34 290.354 1201.12C287.892 1198.89 284.437 1197.78 279.987 1197.78H266.402V1222.61ZM347.561 1224.17H330.452V1245.27H328.623V1195.94H344.342C349.288 1195.94 353.218 1197.22 356.132 1199.77C359.068 1202.33 360.536 1205.8 360.536 1210.18C360.536 1213.54 359.486 1216.48 357.385 1219.02C355.308 1221.52 352.653 1223.08 349.424 1223.69L362.603 1244.79V1245.27H360.671L347.561 1224.17ZM330.452 1222.33H346.002C349.797 1222.33 352.857 1221.18 355.183 1218.88C357.532 1216.57 358.707 1213.68 358.707 1210.18C358.707 1206.34 357.408 1203.31 354.811 1201.09C352.236 1198.88 348.701 1197.78 344.207 1197.78H330.452V1222.33ZM431.666 1224.3C431.666 1228.57 430.898 1232.35 429.363 1235.65C427.85 1238.92 425.682 1241.46 422.858 1243.27C420.035 1245.05 416.783 1245.95 413.102 1245.95C407.545 1245.95 403.051 1243.97 399.618 1240.02C396.185 1236.07 394.469 1230.74 394.469 1224.03V1216.91C394.469 1212.67 395.225 1208.89 396.738 1205.6C398.274 1202.3 400.453 1199.76 403.277 1197.98C406.122 1196.17 409.374 1195.27 413.034 1195.27C416.715 1195.27 419.967 1196.17 422.79 1197.98C425.637 1199.76 427.827 1202.31 429.363 1205.63C430.898 1208.93 431.666 1212.69 431.666 1216.91V1224.3ZM429.837 1216.85C429.837 1210.89 428.324 1206.11 425.298 1202.52C422.271 1198.91 418.183 1197.1 413.034 1197.1C407.952 1197.1 403.898 1198.89 400.871 1202.48C397.845 1206.05 396.331 1210.92 396.331 1217.08V1224.3C396.331 1228.23 397.009 1231.71 398.364 1234.73C399.742 1237.74 401.696 1240.05 404.226 1241.68C406.755 1243.3 409.713 1244.12 413.102 1244.12C418.251 1244.12 422.327 1242.33 425.332 1238.74C428.335 1235.14 429.837 1230.24 429.837 1224.03V1216.85ZM467.327 1224.43V1245.27H465.498V1195.94H480.912C485.949 1195.94 489.856 1197.22 492.633 1199.77C495.435 1202.3 496.834 1205.83 496.834 1210.35C496.834 1214.81 495.468 1218.27 492.735 1220.71C490.025 1223.15 486.163 1224.39 481.149 1224.43H467.327ZM467.327 1222.61H480.912C485.361 1222.61 488.817 1221.54 491.279 1219.39C493.763 1217.24 495.005 1214.25 495.005 1210.41C495.005 1206.43 493.763 1203.34 491.279 1201.12C488.817 1198.89 485.361 1197.78 480.912 1197.78H467.327V1222.61ZM556.277 1220.81H531.547V1243.44H559.733V1245.27H529.717V1195.94H559.733V1197.78H531.547V1218.98H556.277V1220.81ZM610.534 1224.17H593.43V1245.27H591.599V1195.94H607.315C612.268 1195.94 616.197 1197.22 619.11 1199.77C622.046 1202.33 623.515 1205.8 623.515 1210.18C623.515 1213.54 622.458 1216.48 620.36 1219.02C618.287 1221.52 615.632 1223.08 612.397 1223.69L625.58 1244.79V1245.27H623.644L610.534 1224.17ZM593.43 1222.33H608.977C612.776 1222.33 615.834 1221.18 618.158 1218.88C620.505 1216.57 621.683 1213.68 621.683 1210.18C621.683 1206.34 620.384 1203.31 617.787 1201.09C615.213 1198.88 611.679 1197.78 607.186 1197.78H593.43V1222.33ZM689.831 1197.78H671.873V1245.27H670.049V1197.78H652.091V1195.94H689.831V1197.78ZM735.422 1224.88L752.695 1195.94H754.93L736.334 1226.54V1245.27H734.502V1226.54L715.906 1195.94H718.343L735.422 1224.88ZM854.268 1233.44C854.268 1231.35 853.776 1229.57 852.775 1228.13C851.807 1226.66 850.258 1225.38 848.136 1224.26C846.039 1223.14 842.852 1221.99 838.584 1220.81C834.316 1219.64 831.105 1218.45 828.959 1217.25C826.838 1216.06 825.281 1214.67 824.288 1213.09C823.296 1211.51 822.796 1209.59 822.796 1207.33C822.796 1203.74 824.312 1200.83 827.338 1198.62C830.363 1196.39 834.3 1195.27 839.157 1195.27C842.32 1195.27 845.159 1195.89 847.66 1197.13C850.194 1198.35 852.146 1200.08 853.526 1202.31C854.905 1204.53 855.591 1207.03 855.591 1209.84H853.76C853.76 1206.15 852.404 1203.12 849.694 1200.72C846.983 1198.3 843.473 1197.1 839.157 1197.1C834.825 1197.1 831.315 1198.07 828.621 1200.01C825.958 1201.93 824.627 1204.34 824.627 1207.26C824.627 1210.22 825.789 1212.6 828.112 1214.41C830.444 1216.21 834.284 1217.82 839.633 1219.22C844.99 1220.6 848.903 1222.2 851.388 1224.03C854.55 1226.35 856.132 1229.47 856.132 1233.38C856.132 1235.86 855.43 1238.07 854.034 1239.99C852.63 1241.88 850.646 1243.35 848.072 1244.39C845.498 1245.43 842.602 1245.95 839.399 1245.95C835.825 1245.95 832.622 1245.36 829.774 1244.19C826.926 1242.99 824.78 1241.29 823.336 1239.11C821.916 1236.91 821.206 1234.33 821.206 1231.35H823.038C823.038 1235.39 824.546 1238.53 827.572 1240.77C830.597 1243 834.542 1244.12 839.399 1244.12C843.707 1244.12 847.265 1243.13 850.073 1241.17C852.872 1239.19 854.268 1236.61 854.268 1233.44ZM914.897 1220.81H890.169V1243.44H918.35V1245.27H888.338V1195.94H918.35V1197.78H890.169V1218.98H914.897V1220.81ZM969.16 1224.17H952.049V1245.27H950.217V1195.94H965.941C970.887 1195.94 974.816 1197.22 977.728 1199.77C980.665 1202.33 982.133 1205.8 982.133 1210.18C982.133 1213.54 981.085 1216.48 978.979 1219.02C976.906 1221.52 974.251 1223.08 971.024 1223.69L984.199 1244.79V1245.27H982.271L969.16 1224.17ZM952.049 1222.33H967.595C971.395 1222.33 974.453 1221.18 976.776 1218.88C979.132 1216.57 980.302 1213.68 980.302 1210.18C980.302 1206.34 979.003 1203.31 976.405 1201.09C973.832 1198.88 970.298 1197.78 965.804 1197.78H952.049V1222.33ZM1030.64 1240.46L1031.61 1243.44L1032.6 1240.46L1049.16 1195.94H1051.16L1032.73 1245.27H1030.5L1012.06 1195.94H1014.07L1030.64 1240.46ZM1084.86 1245.27H1083.03V1195.94H1084.86V1245.27ZM1155.86 1230.16C1155.38 1235.24 1153.63 1239.15 1150.6 1241.88C1147.58 1244.59 1143.46 1245.95 1138.27 1245.95C1134.77 1245.95 1131.66 1245.07 1128.95 1243.3C1126.26 1241.52 1124.17 1239 1122.69 1235.75C1121.2 1232.48 1120.44 1228.74 1120.41 1224.54V1216.91C1120.41 1212.72 1121.15 1208.97 1122.62 1205.67C1124.09 1202.35 1126.17 1199.78 1128.89 1197.98C1131.62 1196.17 1134.75 1195.27 1138.27 1195.27C1143.42 1195.27 1147.52 1196.62 1150.57 1199.33C1153.62 1202.04 1155.38 1205.92 1155.86 1210.98H1154.02C1153.51 1206.45 1151.93 1203 1149.28 1200.66C1146.63 1198.28 1142.97 1197.1 1138.27 1197.1C1133.48 1197.1 1129.61 1198.91 1126.65 1202.52C1123.71 1206.13 1122.25 1210.97 1122.25 1217.05V1224.3C1122.25 1228.18 1122.9 1231.63 1124.21 1234.63C1125.52 1237.61 1127.39 1239.94 1129.84 1241.61C1132.3 1243.29 1135.11 1244.12 1138.27 1244.12C1142.99 1244.12 1146.67 1242.96 1149.31 1240.63C1151.98 1238.3 1153.55 1234.81 1154.02 1230.16H1155.86ZM1216.41 1220.81H1191.68V1243.44H1219.87V1245.27H1189.85V1195.94H1219.87V1197.78H1191.68V1218.98H1216.41V1220.81ZM1281.45 1233.44C1281.45 1231.35 1280.95 1229.57 1279.95 1228.13C1278.99 1226.66 1277.44 1225.38 1275.31 1224.26C1273.22 1223.14 1270.03 1221.99 1265.76 1220.81C1261.49 1219.64 1258.28 1218.45 1256.14 1217.25C1254.02 1216.06 1252.46 1214.67 1251.47 1213.09C1250.47 1211.51 1249.97 1209.59 1249.97 1207.33C1249.97 1203.74 1251.49 1200.83 1254.52 1198.62C1257.54 1196.39 1261.48 1195.27 1266.34 1195.27C1269.5 1195.27 1272.33 1195.89 1274.84 1197.13C1277.37 1198.35 1279.32 1200.08 1280.7 1202.31C1282.08 1204.53 1282.77 1207.03 1282.77 1209.84H1280.94C1280.94 1206.15 1279.58 1203.12 1276.87 1200.72C1274.16 1198.3 1270.65 1197.1 1266.34 1197.1C1262 1197.1 1258.49 1198.07 1255.8 1200.01C1253.14 1201.93 1251.81 1204.34 1251.81 1207.26C1251.81 1210.22 1252.97 1212.6 1255.29 1214.41C1257.62 1216.21 1261.45 1217.82 1266.81 1219.22C1272.16 1220.6 1276.08 1222.2 1278.57 1224.03C1281.73 1226.35 1283.31 1229.47 1283.31 1233.38C1283.31 1235.86 1282.61 1238.07 1281.21 1239.99C1279.81 1241.88 1277.82 1243.35 1275.25 1244.39C1272.67 1245.43 1269.78 1245.95 1266.58 1245.95C1263 1245.95 1259.8 1245.36 1256.95 1244.19C1254.1 1242.99 1251.96 1241.29 1250.51 1239.11C1249.09 1236.91 1248.38 1234.33 1248.38 1231.35H1250.21C1250.21 1235.39 1251.72 1238.53 1254.75 1240.77C1257.78 1243 1261.72 1244.12 1266.58 1244.12C1270.89 1244.12 1274.44 1243.13 1277.24 1241.17C1280.04 1239.19 1281.45 1236.61 1281.45 1233.44Z" fill="#ADB0B6"/>
<path d="M266.402 1224.43V1223.63H265.595V1224.43H266.402ZM266.402 1245.27V1246.08H267.209V1245.27H266.402ZM264.572 1245.27H263.766V1246.08H264.572V1245.27ZM264.572 1195.94V1195.14H263.766V1195.94H264.572ZM291.709 1199.77L291.164 1200.37L291.168 1200.37L291.709 1199.77ZM291.811 1220.71L291.273 1220.11H291.271L291.811 1220.71ZM280.225 1224.43V1225.24H280.232L280.225 1224.43ZM266.402 1222.61H265.595V1223.42H266.402V1222.61ZM290.354 1219.39L289.827 1218.78H289.824L290.354 1219.39ZM290.354 1201.12L289.811 1201.72L289.817 1201.73L290.354 1201.12ZM266.402 1197.78V1196.97H265.595V1197.78H266.402ZM265.595 1224.43V1245.27H267.209V1224.43H265.595ZM266.402 1244.46H264.572V1246.08H266.402V1244.46ZM265.379 1245.27V1195.94H263.766V1245.27H265.379ZM264.572 1196.75H279.987V1195.14H264.572V1196.75ZM279.987 1196.75C284.891 1196.75 288.578 1197.99 291.164 1200.37L292.255 1199.18C289.284 1196.44 285.157 1195.14 279.987 1195.14V1196.75ZM291.168 1200.37C293.766 1202.72 295.103 1206.01 295.103 1210.35H296.717C296.717 1205.64 295.253 1201.88 292.25 1199.17L291.168 1200.37ZM295.103 1210.35C295.103 1214.64 293.798 1217.86 291.273 1220.11L292.348 1221.31C295.289 1218.69 296.717 1214.99 296.717 1210.35H295.103ZM291.271 1220.11C288.754 1222.37 285.109 1223.58 280.217 1223.63L280.232 1225.24C285.369 1225.2 289.447 1223.92 292.35 1221.31L291.271 1220.11ZM280.225 1223.63H266.402V1225.24H280.225V1223.63ZM266.402 1223.42H279.987V1221.8H266.402V1223.42ZM279.987 1223.42C284.56 1223.42 288.229 1222.31 290.884 1219.99L289.824 1218.78C287.555 1220.76 284.313 1221.8 279.987 1221.8V1223.42ZM290.881 1219.99C293.574 1217.67 294.888 1214.44 294.888 1210.41H293.274C293.274 1214.06 292.103 1216.81 289.827 1218.78L290.881 1219.99ZM294.888 1210.41C294.888 1206.26 293.581 1202.92 290.891 1200.53L289.817 1201.73C292.096 1203.76 293.274 1206.62 293.274 1210.41H294.888ZM290.897 1200.53C288.242 1198.12 284.568 1196.97 279.987 1196.97V1198.58C284.305 1198.58 287.542 1199.66 289.811 1201.72L290.897 1200.53ZM279.987 1196.97H266.402V1198.58H279.987V1196.97ZM265.595 1197.78V1222.61H267.209V1197.78H265.595ZM347.561 1224.17L348.246 1223.74L348.01 1223.36H347.561V1224.17ZM330.452 1224.17V1223.36H329.645V1224.17H330.452ZM330.452 1245.27V1246.08H331.259V1245.27H330.452ZM328.623 1245.27H327.816V1246.08H328.623V1245.27ZM328.623 1195.94V1195.14H327.816V1195.94H328.623ZM356.132 1199.77L355.601 1200.38H355.603L356.132 1199.77ZM357.385 1219.02L356.765 1218.5H356.764L357.385 1219.02ZM349.424 1223.69L349.275 1222.9L348.115 1223.12L348.74 1224.12L349.424 1223.69ZM362.603 1244.79H363.409V1244.57L363.287 1244.37L362.603 1244.79ZM362.603 1245.27V1246.08H363.409V1245.27H362.603ZM360.671 1245.27L359.986 1245.7L360.223 1246.08H360.671V1245.27ZM330.452 1222.33H329.645V1223.14H330.452V1222.33ZM355.184 1218.88L354.619 1218.3L354.616 1218.31L355.184 1218.88ZM354.811 1201.09L354.285 1201.71H354.287L354.811 1201.09ZM330.452 1197.78V1196.97H329.645V1197.78H330.452ZM347.561 1223.36H330.452V1224.97H347.561V1223.36ZM329.645 1224.17V1245.27H331.259V1224.17H329.645ZM330.452 1244.46H328.623V1246.08H330.452V1244.46ZM329.43 1245.27V1195.94H327.816V1245.27H329.43ZM328.623 1196.75H344.342V1195.14H328.623V1196.75ZM344.342 1196.75C349.149 1196.75 352.871 1197.99 355.601 1200.38L356.663 1199.16C353.566 1196.45 349.428 1195.14 344.342 1195.14V1196.75ZM355.603 1200.38C358.339 1202.76 359.73 1205.99 359.73 1210.18H361.343C361.343 1205.59 359.797 1201.89 356.662 1199.16L355.603 1200.38ZM359.73 1210.18C359.73 1213.35 358.742 1216.12 356.765 1218.5L358.006 1219.53C360.23 1216.86 361.343 1213.72 361.343 1210.18H359.73ZM356.764 1218.5C354.808 1220.86 352.321 1222.33 349.275 1222.9L349.574 1224.48C352.986 1223.83 355.807 1222.18 358.006 1219.53L356.764 1218.5ZM348.74 1224.12L361.918 1245.22L363.287 1244.37L350.108 1223.26L348.74 1224.12ZM361.796 1244.79V1245.27H363.409V1244.79H361.796ZM362.603 1244.46H360.671V1246.08H362.603V1244.46ZM361.357 1244.84L348.246 1223.74L346.875 1224.59L359.986 1245.7L361.357 1244.84ZM330.452 1223.14H346.002V1221.53H330.452V1223.14ZM346.002 1223.14C349.973 1223.14 353.25 1221.93 355.751 1219.45L354.616 1218.31C352.465 1220.44 349.621 1221.53 346.002 1221.53V1223.14ZM355.748 1219.45C358.262 1216.99 359.513 1213.87 359.513 1210.18H357.9C357.9 1213.48 356.802 1216.16 354.619 1218.3L355.748 1219.45ZM359.513 1210.18C359.513 1206.13 358.135 1202.87 355.334 1200.48L354.287 1201.71C356.681 1203.75 357.9 1206.54 357.9 1210.18H359.513ZM355.337 1200.48C352.574 1198.11 348.831 1196.97 344.207 1196.97V1198.58C348.572 1198.58 351.898 1199.66 354.285 1201.71L355.337 1200.48ZM344.207 1196.97H330.452V1198.58H344.207V1196.97ZM329.645 1197.78V1222.33H331.259V1197.78H329.645ZM429.363 1235.65L428.631 1235.31H428.631L429.363 1235.65ZM422.858 1243.27L423.29 1243.96L423.293 1243.95L422.858 1243.27ZM396.738 1205.6L396.007 1205.25L396.005 1205.26L396.738 1205.6ZM403.277 1197.98L403.708 1198.66H403.709L403.277 1197.98ZM422.79 1197.98L422.355 1198.66L422.362 1198.66L422.79 1197.98ZM429.363 1205.63L428.631 1205.97H428.631L429.363 1205.63ZM425.298 1202.52L424.679 1203.04H424.681L425.298 1202.52ZM400.871 1202.48L401.487 1203H401.488L400.871 1202.48ZM398.364 1234.73L397.628 1235.07L397.631 1235.07L398.364 1234.73ZM425.332 1238.74L424.713 1238.21L425.332 1238.74ZM430.86 1224.3C430.86 1228.47 430.11 1232.14 428.631 1235.31L430.094 1235.99C431.687 1232.57 432.473 1228.67 432.473 1224.3H430.86ZM428.631 1235.31C427.177 1238.45 425.107 1240.87 422.423 1242.59L423.293 1243.95C426.256 1242.05 428.522 1239.39 430.096 1235.98L428.631 1235.31ZM422.427 1242.59C419.746 1244.29 416.647 1245.14 413.102 1245.14V1246.76C416.919 1246.76 420.324 1245.83 423.29 1243.96L422.427 1242.59ZM413.102 1245.14C407.763 1245.14 403.496 1243.25 400.227 1239.49L399.009 1240.55C402.606 1244.69 407.328 1246.76 413.102 1246.76V1245.14ZM400.227 1239.49C396.954 1235.72 395.275 1230.6 395.275 1224.03H393.662C393.662 1230.88 395.416 1236.41 399.009 1240.55L400.227 1239.49ZM395.275 1224.03V1216.91H393.662V1224.03H395.275ZM395.275 1216.91C395.275 1212.77 396.014 1209.11 397.471 1205.93L396.005 1205.26C394.435 1208.68 393.662 1212.57 393.662 1216.91H395.275ZM397.47 1205.94C398.946 1202.77 401.027 1200.35 403.708 1198.66L402.846 1197.29C399.88 1199.17 397.602 1201.83 396.007 1205.25L397.47 1205.94ZM403.709 1198.66C406.414 1196.94 409.514 1196.07 413.034 1196.07V1194.46C409.235 1194.46 405.83 1195.4 402.844 1197.29L403.709 1198.66ZM413.034 1196.07C416.577 1196.07 419.675 1196.94 422.355 1198.66L423.225 1197.3C420.259 1195.4 416.853 1194.46 413.034 1194.46V1196.07ZM422.362 1198.66C425.064 1200.36 427.154 1202.78 428.631 1205.97L430.095 1205.3C428.5 1201.84 426.209 1199.17 423.219 1197.29L422.362 1198.66ZM428.631 1205.97C430.11 1209.15 430.86 1212.79 430.86 1216.91H432.473C432.473 1212.6 431.687 1208.72 430.094 1205.3L428.631 1205.97ZM430.86 1216.91V1224.3H432.473V1216.91H430.86ZM430.644 1216.85C430.644 1210.75 429.094 1205.77 425.914 1202L424.681 1203.04C427.554 1206.45 429.031 1211.02 429.031 1216.85H430.644ZM425.916 1202C422.721 1198.19 418.397 1196.29 413.034 1196.29V1197.91C417.969 1197.91 421.821 1199.62 424.679 1203.04L425.916 1202ZM413.034 1196.29C407.736 1196.29 403.448 1198.17 400.255 1201.96L401.488 1203C404.347 1199.61 408.168 1197.91 413.034 1197.91V1196.29ZM400.256 1201.96C397.071 1205.71 395.525 1210.79 395.525 1217.08H397.138C397.138 1211.05 398.619 1206.38 401.487 1203L400.256 1201.96ZM395.525 1217.08V1224.3H397.138V1217.08H395.525ZM395.525 1224.3C395.525 1228.32 396.218 1231.92 397.628 1235.07L399.101 1234.4C397.8 1231.5 397.138 1228.13 397.138 1224.3H395.525ZM397.631 1235.07C399.066 1238.2 401.117 1240.64 403.789 1242.36L404.661 1241C402.274 1239.47 400.418 1237.28 399.098 1234.4L397.631 1235.07ZM403.789 1242.36C406.464 1244.08 409.579 1244.92 413.102 1244.92V1243.31C409.848 1243.31 407.045 1242.54 404.661 1241L403.789 1242.36ZM413.102 1244.92C418.463 1244.92 422.777 1243.04 425.95 1239.25L424.713 1238.21C421.879 1241.6 418.039 1243.31 413.102 1243.31V1244.92ZM425.95 1239.25C429.111 1235.47 430.644 1230.37 430.644 1224.03H429.031C429.031 1230.11 427.56 1234.81 424.713 1238.21L425.95 1239.25ZM430.644 1224.03V1216.85H429.031V1224.03H430.644ZM467.327 1224.43V1223.63H466.52V1224.43H467.327ZM467.327 1245.27V1246.08H468.133V1245.27H467.327ZM465.498 1245.27H464.691V1246.08H465.498V1245.27ZM465.498 1195.94V1195.14H464.691V1195.94H465.498ZM492.633 1199.77L492.088 1200.37L492.093 1200.37L492.633 1199.77ZM492.735 1220.71L492.199 1220.11H492.195L492.735 1220.71ZM481.149 1224.43V1225.24H481.156L481.149 1224.43ZM467.327 1222.61H466.52V1223.42H467.327V1222.61ZM491.279 1219.39L490.751 1218.78H490.749L491.279 1219.39ZM491.279 1201.12L490.736 1201.72L490.742 1201.73L491.279 1201.12ZM467.327 1197.78V1196.97H466.52V1197.78H467.327ZM466.52 1224.43V1245.27H468.133V1224.43H466.52ZM467.327 1244.46H465.498V1246.08H467.327V1244.46ZM466.304 1245.27V1195.94H464.691V1245.27H466.304ZM465.498 1196.75H480.912V1195.14H465.498V1196.75ZM480.912 1196.75C485.815 1196.75 489.503 1197.99 492.088 1200.37L493.18 1199.18C490.208 1196.44 486.082 1195.14 480.912 1195.14V1196.75ZM492.093 1200.37C494.691 1202.72 496.028 1206.01 496.028 1210.35H497.641C497.641 1205.64 496.178 1201.88 493.175 1199.17L492.093 1200.37ZM496.028 1210.35C496.028 1214.64 494.722 1217.86 492.199 1220.11L493.272 1221.31C496.214 1218.69 497.641 1214.99 497.641 1210.35H496.028ZM492.195 1220.11C489.679 1222.37 486.033 1223.58 481.142 1223.63L481.156 1225.24C486.293 1225.2 490.371 1223.92 493.275 1221.31L492.195 1220.11ZM481.149 1223.63H467.327V1225.24H481.149V1223.63ZM467.327 1223.42H480.912V1221.8H467.327V1223.42ZM480.912 1223.42C485.485 1223.42 489.154 1222.31 491.809 1219.99L490.749 1218.78C488.479 1220.76 485.238 1221.8 480.912 1221.8V1223.42ZM491.806 1219.99C494.499 1217.67 495.812 1214.44 495.812 1210.41H494.199C494.199 1214.06 493.027 1216.81 490.751 1218.78L491.806 1219.99ZM495.812 1210.41C495.812 1206.26 494.505 1202.92 491.815 1200.53L490.742 1201.73C493.022 1203.76 494.199 1206.62 494.199 1210.41H495.812ZM491.821 1200.53C489.167 1198.12 485.493 1196.97 480.912 1196.97V1198.58C485.23 1198.58 488.467 1199.66 490.736 1201.72L491.821 1200.53ZM480.912 1196.97H467.327V1198.58H480.912V1196.97ZM466.52 1197.78V1222.61H468.133V1197.78H466.52ZM556.277 1220.81V1221.62H557.084V1220.81H556.277ZM531.547 1220.81V1220H530.74V1220.81H531.547ZM531.547 1243.44H530.74V1244.25H531.547V1243.44ZM559.733 1243.44H560.54V1242.63H559.733V1243.44ZM559.733 1245.27V1246.08H560.54V1245.27H559.733ZM529.717 1245.27H528.91V1246.08H529.717V1245.27ZM529.717 1195.94V1195.14H528.91V1195.94H529.717ZM559.733 1195.94H560.54V1195.14H559.733V1195.94ZM559.733 1197.78V1198.58H560.54V1197.78H559.733ZM531.547 1197.78V1196.97H530.74V1197.78H531.547ZM531.547 1218.98H530.74V1219.78H531.547V1218.98ZM556.277 1218.98H557.084V1218.17H556.277V1218.98ZM556.277 1220H531.547V1221.62H556.277V1220ZM530.74 1220.81V1243.44H532.353V1220.81H530.74ZM531.547 1244.25H559.733V1242.63H531.547V1244.25ZM558.926 1243.44V1245.27H560.54V1243.44H558.926ZM559.733 1244.46H529.717V1246.08H559.733V1244.46ZM530.524 1245.27V1195.94H528.91V1245.27H530.524ZM529.717 1196.75H559.733V1195.14H529.717V1196.75ZM558.926 1195.94V1197.78H560.54V1195.94H558.926ZM559.733 1196.97H531.547V1198.58H559.733V1196.97ZM530.74 1197.78V1218.98H532.353V1197.78H530.74ZM531.547 1219.78H556.277V1218.17H531.547V1219.78ZM555.471 1218.98V1220.81H557.084V1218.98H555.471ZM610.534 1224.17L611.219 1223.74L610.985 1223.36H610.534V1224.17ZM593.43 1224.17V1223.36H592.623V1224.17H593.43ZM593.43 1245.27V1246.08H594.237V1245.27H593.43ZM591.599 1245.27H590.792V1246.08H591.599V1245.27ZM591.599 1195.94V1195.14H590.792V1195.94H591.599ZM619.11 1199.77L618.577 1200.38L619.11 1199.77ZM620.36 1219.02L619.739 1218.5L620.36 1219.02ZM612.397 1223.69L612.252 1222.9L611.09 1223.12L611.72 1224.12L612.397 1223.69ZM625.58 1244.79H626.387V1244.57L626.266 1244.37L625.58 1244.79ZM625.58 1245.27V1246.08H626.387V1245.27H625.58ZM623.644 1245.27L622.966 1245.7L623.2 1246.08H623.644V1245.27ZM593.43 1222.33H592.623V1223.14H593.43V1222.33ZM618.158 1218.88L617.593 1218.3V1218.31L618.158 1218.88ZM617.787 1201.09L617.262 1201.71L617.787 1201.09ZM593.43 1197.78V1196.97H592.623V1197.78H593.43ZM610.534 1223.36H593.43V1224.97H610.534V1223.36ZM592.623 1224.17V1245.27H594.237V1224.17H592.623ZM593.43 1244.46H591.599V1246.08H593.43V1244.46ZM592.406 1245.27V1195.94H590.792V1245.27H592.406ZM591.599 1196.75H607.315V1195.14H591.599V1196.75ZM607.315 1196.75C612.123 1196.75 615.85 1197.99 618.577 1200.38L619.642 1199.16C616.544 1196.45 612.405 1195.14 607.315 1195.14V1196.75ZM618.577 1200.38C621.312 1202.76 622.708 1205.99 622.708 1210.18H624.321C624.321 1205.59 622.772 1201.89 619.634 1199.16L618.577 1200.38ZM622.708 1210.18C622.708 1213.35 621.716 1216.12 619.739 1218.5L620.981 1219.53C623.208 1216.86 624.321 1213.72 624.321 1210.18H622.708ZM619.739 1218.5C617.787 1220.86 615.294 1222.33 612.252 1222.9L612.551 1224.48C615.963 1223.83 618.787 1222.18 620.981 1219.53L619.739 1218.5ZM611.72 1224.12L624.894 1245.22L626.266 1244.37L613.083 1223.26L611.72 1224.12ZM624.773 1244.79V1245.27H626.387V1244.79H624.773ZM625.58 1244.46H623.644V1246.08H625.58V1244.46ZM624.329 1244.84L611.219 1223.74L609.848 1224.59L622.966 1245.7L624.329 1244.84ZM593.43 1223.14H608.977V1221.53H593.43V1223.14ZM608.977 1223.14C612.946 1223.14 616.221 1221.93 618.731 1219.45L617.593 1218.31C615.439 1220.44 612.599 1221.53 608.977 1221.53V1223.14ZM618.722 1219.45C621.24 1216.99 622.49 1213.87 622.49 1210.18H620.877C620.877 1213.48 619.779 1216.16 617.593 1218.3L618.722 1219.45ZM622.49 1210.18C622.49 1206.13 621.111 1202.87 618.311 1200.48L617.262 1201.71C619.658 1203.75 620.877 1206.54 620.877 1210.18H622.49ZM618.311 1200.48C615.552 1198.11 611.808 1196.97 607.186 1196.97V1198.58C611.55 1198.58 614.874 1199.66 617.262 1201.71L618.311 1200.48ZM607.186 1196.97H593.43V1198.58H607.186V1196.97ZM592.623 1197.78V1222.33H594.237V1197.78H592.623ZM689.831 1197.78V1198.58H690.638V1197.78H689.831ZM671.873 1197.78V1196.97H671.066V1197.78H671.873ZM671.873 1245.27V1246.08H672.679V1245.27H671.873ZM670.049 1245.27H669.243V1246.08H670.049V1245.27ZM670.049 1197.78H670.856V1196.97H670.049V1197.78ZM652.091 1197.78H651.284V1198.58H652.091V1197.78ZM652.091 1195.94V1195.14H651.284V1195.94H652.091ZM689.831 1195.94H690.638V1195.14H689.831V1195.94ZM689.831 1196.97H671.873V1198.58H689.831V1196.97ZM671.066 1197.78V1245.27H672.679V1197.78H671.066ZM671.873 1244.46H670.049V1246.08H671.873V1244.46ZM670.856 1245.27V1197.78H669.243V1245.27H670.856ZM670.049 1196.97H652.091V1198.58H670.049V1196.97ZM652.897 1197.78V1195.94H651.284V1197.78H652.897ZM652.091 1196.75H689.831V1195.14H652.091V1196.75ZM689.025 1195.94V1197.78H690.638V1195.94H689.025ZM735.422 1224.88L734.72 1225.29L735.414 1226.46L736.108 1225.29L735.422 1224.88ZM752.695 1195.94V1195.14H752.235L752.001 1195.53L752.695 1195.94ZM754.93 1195.94L755.624 1196.36L756.366 1195.14H754.93V1195.94ZM736.334 1226.54L735.64 1226.12L735.527 1226.31V1226.54H736.334ZM736.334 1245.27V1246.08H737.141V1245.27H736.334ZM734.503 1245.27H733.696V1246.08H734.503V1245.27ZM734.503 1226.54H735.309V1226.31L735.196 1226.12L734.503 1226.54ZM715.906 1195.94V1195.14H714.47L715.213 1196.36L715.906 1195.94ZM718.343 1195.94L719.037 1195.53L718.803 1195.14H718.343V1195.94ZM736.108 1225.29L753.389 1196.36L752.001 1195.53L734.728 1224.46L736.108 1225.29ZM752.695 1196.75H754.93V1195.14H752.695V1196.75ZM754.244 1195.53L735.64 1226.12L737.02 1226.96L755.624 1196.36L754.244 1195.53ZM735.527 1226.54V1245.27H737.141V1226.54H735.527ZM736.334 1244.46H734.503V1246.08H736.334V1244.46ZM735.309 1245.27V1226.54H733.696V1245.27H735.309ZM735.196 1226.12L716.592 1195.53L715.213 1196.36L733.817 1226.96L735.196 1226.12ZM715.906 1196.75H718.343V1195.14H715.906V1196.75ZM717.649 1196.36L734.72 1225.29L736.116 1224.46L719.037 1195.53L717.649 1196.36ZM852.775 1228.13L852.106 1228.57L852.114 1228.58V1228.59L852.775 1228.13ZM848.136 1224.26L847.757 1224.98H847.765L848.136 1224.26ZM828.959 1217.25L828.564 1217.95L828.572 1217.96L828.959 1217.25ZM827.338 1198.62L827.814 1199.27L827.338 1198.62ZM847.661 1197.13L847.305 1197.86H847.314L847.661 1197.13ZM853.526 1202.31L852.84 1202.74L853.526 1202.31ZM855.591 1209.84V1210.64H856.398V1209.84H855.591ZM853.76 1209.84H852.953V1210.64H853.76V1209.84ZM849.694 1200.72L849.161 1201.33L849.694 1200.72ZM828.621 1200.01L829.097 1200.66L828.621 1200.01ZM828.112 1214.41L827.62 1215.04L828.112 1214.41ZM839.633 1219.22L839.431 1220L839.633 1219.22ZM851.388 1224.03L850.912 1224.68L851.388 1224.03ZM854.034 1239.99L854.679 1240.46H854.688L854.034 1239.99ZM829.774 1244.19L829.46 1244.93H829.468L829.774 1244.19ZM823.336 1239.11L822.659 1239.54L822.667 1239.55L823.336 1239.11ZM821.206 1231.35V1230.54H820.4V1231.35H821.206ZM823.038 1231.35H823.845V1230.54H823.038V1231.35ZM850.073 1241.17L850.533 1241.83V1241.83L850.073 1241.17ZM855.075 1233.44C855.075 1231.22 854.55 1229.27 853.445 1227.67L852.114 1228.59C853.001 1229.87 853.461 1231.47 853.461 1233.44H855.075ZM853.453 1227.68C852.38 1226.07 850.71 1224.7 848.508 1223.55L847.765 1224.98C849.807 1226.05 851.235 1227.26 852.106 1228.57L853.453 1227.68ZM848.524 1223.55C846.337 1222.38 843.086 1221.21 838.802 1220.03L838.366 1221.59C842.618 1222.76 845.732 1223.89 847.757 1224.98L848.524 1223.55ZM838.802 1220.03C834.55 1218.87 831.42 1217.7 829.355 1216.55L828.572 1217.96C830.799 1219.2 834.083 1220.41 838.366 1221.59L838.802 1220.03ZM829.363 1216.55C827.322 1215.4 825.878 1214.1 824.974 1212.66L823.602 1213.52C824.692 1215.24 826.362 1216.71 828.564 1217.95L829.363 1216.55ZM824.974 1212.66C824.07 1211.23 823.602 1209.47 823.602 1207.33H821.989C821.989 1209.71 822.513 1211.78 823.602 1213.52L824.974 1212.66ZM823.602 1207.33C823.602 1204 824.982 1201.34 827.814 1199.27L826.862 1197.97C823.635 1200.33 821.989 1203.46 821.989 1207.33H823.602ZM827.814 1199.27C830.67 1197.16 834.429 1196.07 839.157 1196.07V1194.46C834.179 1194.46 830.057 1195.61 826.854 1197.97L827.814 1199.27ZM839.157 1196.07C842.215 1196.07 844.926 1196.67 847.305 1197.86L848.024 1196.4C845.393 1195.11 842.433 1194.46 839.157 1194.46V1196.07ZM847.314 1197.86C849.718 1199.01 851.549 1200.64 852.84 1202.74L854.212 1201.89C852.743 1199.51 850.67 1197.69 848.015 1196.4L847.314 1197.86ZM852.84 1202.74C854.131 1204.82 854.784 1207.17 854.784 1209.84H856.398C856.398 1206.89 855.672 1204.24 854.212 1201.89L852.84 1202.74ZM855.591 1209.03H853.76V1210.64H855.591V1209.03ZM854.566 1209.84C854.566 1205.92 853.114 1202.67 850.234 1200.12L849.161 1201.33C851.694 1203.56 852.953 1206.38 852.953 1209.84H854.566ZM850.234 1200.12C847.346 1197.55 843.635 1196.29 839.157 1196.29V1197.91C843.312 1197.91 846.62 1199.06 849.161 1201.33L850.234 1200.12ZM839.157 1196.29C834.704 1196.29 831.017 1197.28 828.153 1199.36L829.097 1200.66C831.614 1198.85 834.938 1197.91 839.157 1197.91V1196.29ZM828.153 1199.36C825.305 1201.41 823.82 1204.05 823.82 1207.26H825.434C825.434 1204.64 826.612 1202.46 829.097 1200.66L828.153 1199.36ZM823.82 1207.26C823.82 1210.47 825.095 1213.08 827.62 1215.04L828.613 1213.77C826.483 1212.12 825.434 1209.97 825.434 1207.26H823.82ZM827.62 1215.04C830.081 1216.95 834.05 1218.59 839.431 1220L839.835 1218.44C834.518 1217.04 830.807 1215.48 828.613 1213.77L827.62 1215.04ZM839.431 1220C844.756 1221.37 848.556 1222.94 850.912 1224.68L851.872 1223.38C849.258 1221.45 845.224 1219.83 839.835 1218.44L839.431 1220ZM850.912 1224.68C853.865 1226.85 855.325 1229.73 855.325 1233.38H856.938C856.938 1229.22 855.236 1225.86 851.872 1223.38L850.912 1224.68ZM855.325 1233.38C855.325 1235.7 854.679 1237.74 853.38 1239.51L854.688 1240.46C856.188 1238.4 856.938 1236.03 856.938 1233.38H855.325ZM853.38 1239.51C852.09 1241.26 850.226 1242.65 847.765 1243.64L848.37 1245.14C851.057 1244.05 853.179 1242.5 854.679 1240.46L853.38 1239.51ZM847.765 1243.64C845.305 1244.63 842.513 1245.14 839.399 1245.14V1246.76C842.691 1246.76 845.684 1246.22 848.37 1245.14L847.765 1243.64ZM839.399 1245.14C835.914 1245.14 832.816 1244.57 830.081 1243.44L829.468 1244.93C832.429 1246.15 835.736 1246.76 839.399 1246.76V1245.14ZM830.089 1243.44C827.362 1242.29 825.353 1240.7 824.014 1238.66L822.667 1239.55C824.216 1241.9 826.499 1243.68 829.46 1244.93L830.089 1243.44ZM824.014 1238.66C822.691 1236.62 822.013 1234.19 822.013 1231.35H820.4C820.4 1234.46 821.142 1237.2 822.659 1239.54L824.014 1238.66ZM821.206 1232.15H823.038V1230.54H821.206V1232.15ZM822.231 1231.35C822.231 1235.62 823.845 1239.01 827.096 1241.41L828.056 1240.12C825.248 1238.04 823.845 1235.15 823.845 1231.35H822.231ZM827.096 1241.41C830.299 1243.78 834.421 1244.92 839.399 1244.92V1243.31C834.663 1243.31 830.904 1242.22 828.056 1240.12L827.096 1241.41ZM839.399 1244.92C843.836 1244.92 847.564 1243.92 850.533 1241.83L849.605 1240.51C846.975 1242.36 843.586 1243.31 839.399 1243.31V1244.92ZM850.533 1241.83C853.526 1239.7 855.075 1236.9 855.075 1233.44H853.461C853.461 1236.32 852.211 1238.66 849.605 1240.51L850.533 1241.83ZM914.897 1220.81V1221.62H915.704V1220.81H914.897ZM890.169 1220.81V1220H889.363V1220.81H890.169ZM890.169 1243.44H889.363V1244.25H890.169V1243.44ZM918.35 1243.44H919.157V1242.63H918.35V1243.44ZM918.35 1245.27V1246.08H919.157V1245.27H918.35ZM888.338 1245.27H887.531V1246.08H888.338V1245.27ZM888.338 1195.94V1195.14H887.531V1195.94H888.338ZM918.35 1195.94H919.157V1195.14H918.35V1195.94ZM918.35 1197.78V1198.58H919.157V1197.78H918.35ZM890.169 1197.78V1196.97H889.363V1197.78H890.169ZM890.169 1218.98H889.363V1219.78H890.169V1218.98ZM914.897 1218.98H915.704V1218.17H914.897V1218.98ZM914.897 1220H890.169V1221.62H914.897V1220ZM889.363 1220.81V1243.44H890.976V1220.81H889.363ZM890.169 1244.25H918.35V1242.63H890.169V1244.25ZM917.543 1243.44V1245.27H919.157V1243.44H917.543ZM918.35 1244.46H888.338V1246.08H918.35V1244.46ZM889.145 1245.27V1195.94H887.531V1245.27H889.145ZM888.338 1196.75H918.35V1195.14H888.338V1196.75ZM917.543 1195.94V1197.78H919.157V1195.94H917.543ZM918.35 1196.97H890.169V1198.58H918.35V1196.97ZM889.363 1197.78V1218.98H890.976V1197.78H889.363ZM890.169 1219.78H914.897V1218.17H890.169V1219.78ZM914.09 1218.98V1220.81H915.704V1218.98H914.09ZM969.161 1224.17L969.846 1223.74L969.604 1223.36H969.161V1224.17ZM952.049 1224.17V1223.36H951.242V1224.17H952.049ZM952.049 1245.27V1246.08H952.856V1245.27H952.049ZM950.218 1245.27H949.411V1246.08H950.218V1245.27ZM950.218 1195.94V1195.14H949.411V1195.94H950.218ZM977.728 1199.77L977.196 1200.38L977.728 1199.77ZM978.979 1219.02L978.358 1218.5L978.979 1219.02ZM971.024 1223.69L970.871 1222.9L969.709 1223.12L970.338 1224.12L971.024 1223.69ZM984.199 1244.79H985.006V1244.57L984.885 1244.37L984.199 1244.79ZM984.199 1245.27V1246.08H985.006V1245.27H984.199ZM982.271 1245.27L981.585 1245.7L981.819 1246.08H982.271V1245.27ZM952.049 1222.33H951.242V1223.14H952.049V1222.33ZM976.776 1218.88L976.212 1218.3V1218.31L976.776 1218.88ZM976.405 1201.09L975.881 1201.71L976.405 1201.09ZM952.049 1197.78V1196.97H951.242V1197.78H952.049ZM969.161 1223.36H952.049V1224.97H969.161V1223.36ZM951.242 1224.17V1245.27H952.856V1224.17H951.242ZM952.049 1244.46H950.218V1246.08H952.049V1244.46ZM951.024 1245.27V1195.94H949.411V1245.27H951.024ZM950.218 1196.75H965.942V1195.14H950.218V1196.75ZM965.942 1196.75C970.742 1196.75 974.469 1197.99 977.196 1200.38L978.261 1199.16C975.163 1196.45 971.024 1195.14 965.942 1195.14V1196.75ZM977.196 1200.38C979.939 1202.76 981.327 1205.99 981.327 1210.18H982.94C982.94 1205.59 981.391 1201.89 978.261 1199.16L977.196 1200.38ZM981.327 1210.18C981.327 1213.35 980.342 1216.12 978.358 1218.5L979.6 1219.53C981.827 1216.86 982.94 1213.72 982.94 1210.18H981.327ZM978.358 1218.5C976.405 1220.86 973.921 1222.33 970.871 1222.9L971.169 1224.48C974.582 1223.83 977.406 1222.18 979.6 1219.53L978.358 1218.5ZM970.338 1224.12L983.513 1245.22L984.885 1244.37L971.702 1223.26L970.338 1224.12ZM983.392 1244.79V1245.27H985.006V1244.79H983.392ZM984.199 1244.46H982.271V1246.08H984.199V1244.46ZM982.956 1244.84L969.846 1223.74L968.475 1224.59L981.585 1245.7L982.956 1244.84ZM952.049 1223.14H967.595V1221.53H952.049V1223.14ZM967.595 1223.14C971.573 1223.14 974.848 1221.93 977.349 1219.45L976.212 1218.31C974.058 1220.44 971.218 1221.53 967.595 1221.53V1223.14ZM977.341 1219.45C979.858 1216.99 981.109 1213.87 981.109 1210.18H979.495C979.495 1213.48 978.398 1216.16 976.212 1218.3L977.341 1219.45ZM981.109 1210.18C981.109 1206.13 979.729 1202.87 976.93 1200.48L975.881 1201.71C978.277 1203.75 979.495 1206.54 979.495 1210.18H981.109ZM976.93 1200.48C974.171 1198.11 970.427 1196.97 965.804 1196.97V1198.58C970.169 1198.58 973.493 1199.66 975.881 1201.71L976.93 1200.48ZM965.804 1196.97H952.049V1198.58H965.804V1196.97ZM951.242 1197.78V1222.33H952.856V1197.78H951.242ZM1030.64 1240.46L1031.4 1240.2V1240.2L1031.39 1240.18L1030.64 1240.46ZM1031.61 1243.44L1030.85 1243.7L1031.61 1246.02L1032.38 1243.7L1031.61 1243.44ZM1032.6 1240.46L1031.84 1240.18V1240.2L1031.83 1240.2L1032.6 1240.46ZM1049.16 1195.94V1195.14H1048.6L1048.41 1195.66L1049.16 1195.94ZM1051.16 1195.94L1051.92 1196.23L1052.32 1195.14H1051.16V1195.94ZM1032.73 1245.27V1246.08H1033.29L1033.49 1245.55L1032.73 1245.27ZM1030.5 1245.27L1029.74 1245.55L1029.93 1246.08H1030.5V1245.27ZM1012.06 1195.94V1195.14H1010.9L1011.31 1196.23L1012.06 1195.94ZM1014.07 1195.94L1014.82 1195.66L1014.63 1195.14H1014.07V1195.94ZM1029.87 1240.71L1030.85 1243.7L1032.38 1243.19L1031.4 1240.2L1029.87 1240.71ZM1032.38 1243.7L1033.36 1240.71L1031.83 1240.2L1030.85 1243.19L1032.38 1243.7ZM1033.36 1240.74L1049.92 1196.23L1048.41 1195.66L1031.84 1240.18L1033.36 1240.74ZM1049.16 1196.75H1051.16V1195.14H1049.16V1196.75ZM1050.41 1195.66L1031.98 1244.99L1033.49 1245.55L1051.92 1196.23L1050.41 1195.66ZM1032.73 1244.46H1030.5V1246.08H1032.73V1244.46ZM1031.25 1244.99L1012.82 1195.66L1011.31 1196.23L1029.74 1245.55L1031.25 1244.99ZM1012.06 1196.75H1014.07V1195.14H1012.06V1196.75ZM1013.31 1196.23L1029.88 1240.74L1031.39 1240.18L1014.82 1195.66L1013.31 1196.23ZM1084.86 1245.27V1246.08H1085.67V1245.27H1084.86ZM1083.03 1245.27H1082.22V1246.08H1083.03V1245.27ZM1083.03 1195.94V1195.14H1082.22V1195.94H1083.03ZM1084.86 1195.94H1085.67V1195.14H1084.86V1195.94ZM1084.86 1244.46H1083.03V1246.08H1084.86V1244.46ZM1083.84 1245.27V1195.94H1082.22V1245.27H1083.84ZM1083.03 1196.75H1084.86V1195.14H1083.03V1196.75ZM1084.05 1195.94V1245.27H1085.67V1195.94H1084.05ZM1155.86 1230.16L1156.65 1230.23L1156.74 1229.35H1155.86V1230.16ZM1150.6 1241.88L1151.14 1242.49V1242.48L1150.6 1241.88ZM1128.95 1243.3L1128.51 1243.98H1128.51L1128.95 1243.3ZM1122.69 1235.75L1121.96 1236.08V1236.09L1122.69 1235.75ZM1120.41 1224.54H1119.61V1224.54L1120.41 1224.54ZM1122.62 1205.67L1123.36 1206L1122.62 1205.67ZM1128.89 1197.98L1128.44 1197.3V1197.31L1128.89 1197.98ZM1155.86 1210.98V1211.79H1156.74L1156.65 1210.91L1155.86 1210.98ZM1154.02 1210.98L1153.23 1211.08L1153.31 1211.79H1154.02V1210.98ZM1149.28 1200.66L1148.74 1201.25H1148.75L1149.28 1200.66ZM1126.65 1202.52L1126.03 1202L1126.02 1202.01L1126.65 1202.52ZM1124.21 1234.63L1123.47 1234.95V1234.96L1124.21 1234.63ZM1129.84 1241.61L1129.38 1242.28H1129.39L1129.84 1241.61ZM1149.31 1240.63L1148.78 1240.02V1240.03L1149.31 1240.63ZM1154.02 1230.16V1229.35H1153.3L1153.22 1230.08L1154.02 1230.16ZM1155.05 1230.09C1154.59 1235.02 1152.9 1238.72 1150.06 1241.29L1151.14 1242.48C1154.36 1239.58 1156.17 1235.47 1156.65 1230.23L1155.05 1230.09ZM1150.06 1241.29C1147.22 1243.83 1143.33 1245.14 1138.27 1245.14V1246.76C1143.61 1246.76 1147.93 1245.36 1151.14 1242.49L1150.06 1241.29ZM1138.27 1245.14C1134.91 1245.14 1131.96 1244.3 1129.39 1242.63L1128.51 1243.98C1131.37 1245.84 1134.63 1246.76 1138.27 1246.76V1245.14ZM1129.4 1242.63C1126.85 1240.94 1124.85 1238.54 1123.42 1235.41L1121.96 1236.09C1123.5 1239.46 1125.68 1242.1 1128.51 1243.98L1129.4 1242.63ZM1123.42 1235.42C1121.99 1232.26 1121.25 1228.64 1121.22 1224.54L1119.61 1224.54C1119.63 1228.84 1120.41 1232.69 1121.96 1236.08L1123.42 1235.42ZM1121.22 1224.54V1216.91H1119.61V1224.54H1121.22ZM1121.22 1216.91C1121.22 1212.81 1121.94 1209.18 1123.36 1206L1121.88 1205.34C1120.36 1208.76 1119.61 1212.62 1119.61 1216.91H1121.22ZM1123.36 1206C1124.77 1202.79 1126.76 1200.36 1129.34 1198.65L1128.44 1197.31C1125.59 1199.2 1123.41 1201.9 1121.88 1205.34L1123.36 1206ZM1129.33 1198.65C1131.92 1196.94 1134.9 1196.07 1138.27 1196.07V1194.46C1134.6 1194.46 1131.31 1195.4 1128.44 1197.3L1129.33 1198.65ZM1138.27 1196.07C1143.28 1196.07 1147.17 1197.39 1150.03 1199.94L1151.1 1198.73C1147.87 1195.86 1143.56 1194.46 1138.27 1194.46V1196.07ZM1150.03 1199.94C1152.9 1202.48 1154.59 1206.15 1155.05 1211.06L1156.65 1210.91C1156.17 1205.7 1154.34 1201.61 1151.1 1198.73L1150.03 1199.94ZM1155.86 1210.18H1154.02V1211.79H1155.86V1210.18ZM1154.82 1210.89C1154.29 1206.21 1152.64 1202.57 1149.81 1200.05L1148.75 1201.25C1151.2 1203.44 1152.72 1206.67 1153.23 1211.08L1154.82 1210.89ZM1149.82 1200.05C1146.99 1197.51 1143.1 1196.29 1138.27 1196.29V1197.91C1142.83 1197.91 1146.29 1199.05 1148.74 1201.25L1149.82 1200.05ZM1138.27 1196.29C1133.25 1196.29 1129.14 1198.2 1126.03 1202L1127.27 1203.03C1130.08 1199.61 1133.72 1197.91 1138.27 1197.91V1196.29ZM1126.02 1202.01C1122.94 1205.8 1121.44 1210.85 1121.44 1217.05H1123.05C1123.05 1211.1 1124.49 1206.46 1127.28 1203.03L1126.02 1202.01ZM1121.44 1217.05V1224.3H1123.05V1217.05H1121.44ZM1121.44 1224.3C1121.44 1228.27 1122.11 1231.83 1123.47 1234.95L1124.95 1234.31C1123.69 1231.43 1123.05 1228.09 1123.05 1224.3H1121.44ZM1123.47 1234.96C1124.84 1238.06 1126.8 1240.51 1129.38 1242.28L1130.29 1240.95C1127.99 1239.37 1126.21 1237.16 1124.95 1234.31L1123.47 1234.96ZM1129.39 1242.28C1131.98 1244.04 1134.96 1244.92 1138.27 1244.92V1243.31C1135.26 1243.31 1132.6 1242.52 1130.29 1240.95L1129.39 1242.28ZM1138.27 1244.92C1143.12 1244.92 1147.01 1243.73 1149.85 1241.24L1148.78 1240.03C1146.33 1242.18 1142.86 1243.31 1138.27 1243.31V1244.92ZM1149.85 1241.24C1152.71 1238.74 1154.34 1235.03 1154.82 1230.24L1153.22 1230.08C1152.76 1234.6 1151.25 1237.86 1148.78 1240.02L1149.85 1241.24ZM1154.02 1230.97H1155.86V1229.35H1154.02V1230.97ZM1216.41 1220.81V1221.62H1217.22V1220.81H1216.41ZM1191.68 1220.81V1220H1190.88V1220.81H1191.68ZM1191.68 1243.44H1190.88V1244.25H1191.68V1243.44ZM1219.87 1243.44H1220.68V1242.63H1219.87V1243.44ZM1219.87 1245.27V1246.08H1220.68V1245.27H1219.87ZM1189.85 1245.27H1189.05V1246.08H1189.85V1245.27ZM1189.85 1195.94V1195.14H1189.05V1195.94H1189.85ZM1219.87 1195.94H1220.68V1195.14H1219.87V1195.94ZM1219.87 1197.78V1198.58H1220.68V1197.78H1219.87ZM1191.68 1197.78V1196.97H1190.88V1197.78H1191.68ZM1191.68 1218.98H1190.88V1219.78H1191.68V1218.98ZM1216.41 1218.98H1217.22V1218.17H1216.41V1218.98ZM1216.41 1220H1191.68V1221.62H1216.41V1220ZM1190.88 1220.81V1243.44H1192.49V1220.81H1190.88ZM1191.68 1244.25H1219.87V1242.63H1191.68V1244.25ZM1219.07 1243.44V1245.27H1220.68V1243.44H1219.07ZM1219.87 1244.46H1189.85V1246.08H1219.87V1244.46ZM1190.66 1245.27V1195.94H1189.05V1245.27H1190.66ZM1189.85 1196.75H1219.87V1195.14H1189.85V1196.75ZM1219.07 1195.94V1197.78H1220.68V1195.94H1219.07ZM1219.87 1196.97H1191.68V1198.58H1219.87V1196.97ZM1190.88 1197.78V1218.98H1192.49V1197.78H1190.88ZM1191.68 1219.78H1216.41V1218.17H1191.68V1219.78ZM1215.61 1218.98V1220.81H1217.22V1218.98H1215.61ZM1279.95 1228.13L1279.28 1228.57V1228.58L1279.29 1228.59L1279.95 1228.13ZM1275.31 1224.26L1274.94 1224.98H1274.94L1275.31 1224.26ZM1256.14 1217.25L1255.74 1217.95V1217.96L1256.14 1217.25ZM1254.52 1198.62L1254.99 1199.27L1254.52 1198.62ZM1274.84 1197.13L1274.48 1197.86H1274.49L1274.84 1197.13ZM1280.7 1202.31L1280.01 1202.74H1280.02L1280.7 1202.31ZM1282.77 1209.84V1210.64H1283.58V1209.84H1282.77ZM1280.94 1209.84H1280.13V1210.64H1280.94V1209.84ZM1276.87 1200.72L1276.34 1201.33L1276.87 1200.72ZM1255.8 1200.01L1256.27 1200.66L1255.8 1200.01ZM1255.29 1214.41L1254.8 1215.04L1255.29 1214.41ZM1266.81 1219.22L1266.61 1220L1266.81 1219.22ZM1278.57 1224.03L1278.09 1224.68L1278.57 1224.03ZM1281.21 1239.99L1281.86 1240.46L1281.21 1239.99ZM1256.95 1244.19L1256.64 1244.93H1256.65L1256.95 1244.19ZM1250.51 1239.11L1249.84 1239.54L1249.85 1239.55L1250.51 1239.11ZM1248.38 1231.35V1230.54H1247.58V1231.35H1248.38ZM1250.21 1231.35H1251.01V1230.54H1250.21V1231.35ZM1277.24 1241.17L1277.71 1241.83V1241.83L1277.24 1241.17ZM1282.25 1233.44C1282.25 1231.22 1281.72 1229.27 1280.62 1227.67L1279.29 1228.59C1280.17 1229.87 1280.64 1231.47 1280.64 1233.44H1282.25ZM1280.63 1227.68C1279.56 1226.07 1277.89 1224.7 1275.69 1223.55L1274.94 1224.98C1276.98 1226.05 1278.41 1227.26 1279.28 1228.57L1280.63 1227.68ZM1275.69 1223.55C1273.52 1222.38 1270.26 1221.21 1265.97 1220.03L1265.54 1221.59C1269.8 1222.76 1272.91 1223.89 1274.94 1224.98L1275.69 1223.55ZM1265.97 1220.03C1261.73 1218.87 1258.59 1217.7 1256.53 1216.55L1255.74 1217.96C1257.98 1219.2 1261.26 1220.41 1265.54 1221.59L1265.97 1220.03ZM1256.53 1216.55C1254.49 1215.4 1253.05 1214.1 1252.14 1212.66L1250.78 1213.52C1251.86 1215.24 1253.54 1216.71 1255.74 1217.95L1256.53 1216.55ZM1252.14 1212.66C1251.25 1211.23 1250.78 1209.47 1250.78 1207.33H1249.17C1249.17 1209.71 1249.69 1211.78 1250.78 1213.52L1252.14 1212.66ZM1250.78 1207.33C1250.78 1204 1252.16 1201.34 1254.99 1199.27L1254.04 1197.97C1250.81 1200.33 1249.17 1203.46 1249.17 1207.33H1250.78ZM1254.99 1199.27C1257.85 1197.16 1261.6 1196.07 1266.34 1196.07V1194.46C1261.36 1194.46 1257.23 1195.61 1254.03 1197.97L1254.99 1199.27ZM1266.34 1196.07C1269.39 1196.07 1272.1 1196.67 1274.48 1197.86L1275.2 1196.4C1272.56 1195.11 1269.6 1194.46 1266.34 1194.46V1196.07ZM1274.49 1197.86C1276.89 1199.01 1278.72 1200.64 1280.01 1202.74L1281.39 1201.89C1279.92 1199.51 1277.85 1197.69 1275.19 1196.4L1274.49 1197.86ZM1280.02 1202.74C1281.31 1204.82 1281.96 1207.17 1281.96 1209.84H1283.58C1283.58 1206.89 1282.85 1204.24 1281.39 1201.89L1280.02 1202.74ZM1282.77 1209.03H1280.94V1210.64H1282.77V1209.03ZM1281.74 1209.84C1281.74 1205.92 1280.29 1202.67 1277.4 1200.12L1276.34 1201.33C1278.87 1203.56 1280.13 1206.38 1280.13 1209.84H1281.74ZM1277.41 1200.12C1274.52 1197.55 1270.81 1196.29 1266.34 1196.29V1197.91C1270.49 1197.91 1273.8 1199.06 1276.34 1201.33L1277.41 1200.12ZM1266.34 1196.29C1261.88 1196.29 1258.19 1197.28 1255.33 1199.36L1256.27 1200.66C1258.78 1198.85 1262.12 1197.91 1266.34 1197.91V1196.29ZM1255.33 1199.36C1252.48 1201.41 1251 1204.05 1251 1207.26H1252.61C1252.61 1204.64 1253.79 1202.46 1256.27 1200.66L1255.33 1199.36ZM1251 1207.26C1251 1210.47 1252.27 1213.08 1254.8 1215.04L1255.79 1213.77C1253.66 1212.12 1252.61 1209.97 1252.61 1207.26H1251ZM1254.8 1215.04C1257.26 1216.95 1261.23 1218.59 1266.61 1220L1267.01 1218.44C1261.69 1217.04 1257.99 1215.48 1255.79 1213.77L1254.8 1215.04ZM1266.61 1220C1271.93 1221.37 1275.73 1222.94 1278.09 1224.68L1279.04 1223.38C1276.44 1221.45 1272.4 1219.83 1267.01 1218.44L1266.61 1220ZM1278.09 1224.68C1281.04 1226.85 1282.5 1229.73 1282.5 1233.38H1284.12C1284.12 1229.22 1282.41 1225.86 1279.04 1223.38L1278.09 1224.68ZM1282.5 1233.38C1282.5 1235.7 1281.85 1237.74 1280.56 1239.51L1281.86 1240.46C1283.37 1238.4 1284.12 1236.03 1284.12 1233.38H1282.5ZM1280.56 1239.51C1279.26 1241.26 1277.4 1242.65 1274.94 1243.64L1275.55 1245.14C1278.24 1244.05 1280.36 1242.5 1281.86 1240.46L1280.56 1239.51ZM1274.94 1243.64C1272.48 1244.63 1269.69 1245.14 1266.58 1245.14V1246.76C1269.87 1246.76 1272.86 1246.22 1275.55 1245.14L1274.94 1243.64ZM1266.58 1245.14C1263.09 1245.14 1259.99 1244.57 1257.26 1243.44L1256.65 1244.93C1259.6 1246.15 1262.91 1246.76 1266.58 1246.76V1245.14ZM1257.27 1243.44C1254.54 1242.29 1252.53 1240.7 1251.19 1238.66L1249.85 1239.55C1251.39 1241.9 1253.68 1243.68 1256.64 1244.93L1257.27 1243.44ZM1251.19 1238.66C1249.87 1236.62 1249.19 1234.19 1249.19 1231.35H1247.58C1247.58 1234.46 1248.32 1237.2 1249.84 1239.54L1251.19 1238.66ZM1248.38 1232.15H1250.21V1230.54H1248.38V1232.15ZM1249.4 1231.35C1249.4 1235.62 1251.02 1239.01 1254.27 1241.41L1255.23 1240.12C1252.43 1238.04 1251.01 1235.15 1251.01 1231.35H1249.4ZM1254.27 1241.41C1257.47 1243.78 1261.59 1244.92 1266.58 1244.92V1243.31C1261.84 1243.31 1258.08 1242.22 1255.23 1240.12L1254.27 1241.41ZM1266.58 1244.92C1271.01 1244.92 1274.74 1243.92 1277.71 1241.83L1276.78 1240.51C1274.14 1242.36 1270.76 1243.31 1266.58 1243.31V1244.92ZM1277.71 1241.83C1280.7 1239.7 1282.25 1236.9 1282.25 1233.44H1280.64C1280.64 1236.32 1279.39 1238.66 1276.78 1240.51L1277.71 1241.83Z" fill="#CFCFCF"/>
<path d="M20.7244 1065.15V1126.68H0V969.516H57.9626C75.1606 969.516 88.6168 973.905 98.3311 982.69C108.117 991.468 113.011 1003.09 113.011 1017.55C113.011 1032.81 108.225 1044.57 98.6554 1052.85C89.1565 1061.05 75.5204 1065.15 57.7472 1065.15H20.7244ZM20.7244 1048.21H57.9626C69.0445 1048.21 77.5349 1045.61 83.4357 1040.43C89.3364 1035.18 92.2868 1027.63 92.2868 1017.77C92.2868 1008.41 89.3364 1000.93 83.4357 995.316C77.5349 989.701 69.4398 986.789 59.1502 986.571H20.7244V1048.21ZM232.13 1109.73H306.608V1126.68H211.299V969.516H232.13V1109.73ZM491.03 1085.66H425.187L410.4 1126.68H389.028L449.042 969.516H467.175L527.297 1126.68H506.032L491.03 1085.66ZM431.448 1068.6H484.877L458.108 995.098L431.448 1068.6ZM714.849 986.571H664.337V1126.68H643.716V986.571H593.309V969.516H714.849V986.571ZM832.243 1126.68H811.517V969.516H832.243V1126.68ZM1062.86 1126.68H1042.03L962.908 1005.57V1126.68H942.077V969.516H962.908L1042.25 1091.16V969.516H1062.86V1126.68ZM1282.15 969.516V1076.37C1282.08 1091.2 1277.4 1103.33 1268.11 1112.75C1258.91 1122.18 1246.38 1127.47 1230.56 1128.62L1225.04 1128.84C1207.85 1128.84 1194.14 1124.19 1183.92 1114.91C1173.7 1105.63 1168.52 1092.86 1168.38 1076.59V969.516H1188.89V1075.95C1188.89 1087.31 1192.02 1096.16 1198.28 1102.5C1204.54 1108.76 1213.46 1111.89 1225.04 1111.89C1236.78 1111.89 1245.74 1108.76 1251.93 1102.5C1258.19 1096.24 1261.32 1087.43 1261.32 1076.05V969.516H1282.15ZM1413.46 969.516L1464.84 1097.74L1516.22 969.516H1543.1V1126.68H1522.37V1065.47L1524.32 999.415L1472.72 1126.68H1456.85L1405.37 999.737L1407.42 1065.47V1126.68H1386.7V969.516H1413.46Z" fill="url(#paint0_linear)"/>
<path d="M764.299 918.371C1006.06 918.371 1202.04 917.173 1202.04 915.696C1202.04 914.218 1006.06 913.021 764.299 913.021C522.54 913.021 326.556 914.218 326.556 915.696C326.556 917.173 522.54 918.371 764.299 918.371Z" fill="#C7C7C7" fill-opacity="0.46"/>
<path fill-rule="evenodd" clip-rule="evenodd" d="M592.89 908.983L618.91 908.814L618.732 785.343L685.275 729.843L685.26 908.225L788.777 908.217L789.113 396.233L775.037 385.621L761.84 396.331L761.709 532.117L685.247 595.043L685.127 697.194L592.877 775.516L592.89 908.983Z" fill="url(#paint1_linear)"/>
<path fill-rule="evenodd" clip-rule="evenodd" d="M841.602 628.662L795.888 577.471L795.46 539.157L868.419 620.463L868.516 766.351L950.129 833.526L949.984 908.782L924.312 908.637L924.49 844.893L842.045 779.559L841.602 628.662Z" fill="#E6E6E6"/>
<path fill-rule="evenodd" clip-rule="evenodd" d="M772.168 0C709.437 43.4351 642.045 79.0944 575.375 115.961C544.255 133.169 511.87 151.928 475.973 156.544C471.721 157.091 469.035 153.287 468.279 149.489C466.116 138.608 472.681 127.657 477.427 118.676C478.684 116.296 480.47 115.718 481.089 112.932C481.365 111.695 479.914 110.881 478.947 111.495C476.06 113.328 477.029 114.563 474.553 116.743C469.701 121.013 464.608 125.004 459.532 129.006C436.122 147.466 412.876 166.403 386.766 181.017C351.911 200.523 314.747 216.31 276.028 226.31C264.454 229.3 252.773 231.886 241.045 234.203C233.316 235.731 225.484 236.675 217.692 237.839C215.9 238.107 214.096 238.28 212.298 238.5C211.729 238.57 210.672 238.144 210.592 238.711C208.705 252.189 210.01 263.141 210.171 276.642C210.486 303.048 210.34 329.46 210.784 355.864C211.367 390.427 213.201 447.954 216.097 482.421C219.072 517.845 225.747 559.492 230.306 594.715C234.411 626.419 236.893 658.487 244.1 689.721C257.028 688.712 265.452 688.438 276.921 686.816C273.677 668.926 270.257 651.062 267.457 633.098C264.666 615.162 262.226 597.174 260.138 579.144C259.094 570.158 258.503 561.12 258.05 552.085C257.597 543.056 257.336 534.012 257.42 524.973C257.504 515.911 257.733 506.835 258.554 497.811C262.076 459.066 271.349 413.099 311.552 396.502C334.725 386.936 362.788 388.889 386.739 393.872C390.732 394.703 394.494 397.635 398.725 397.727C399.254 397.738 398.609 396.625 398.295 396.199C397.609 395.268 396.607 394.617 395.816 393.774C388.272 385.734 380.637 377.774 373.292 369.551C356.574 350.835 338.183 327.107 342.711 300.239L342.696 299.806C343.385 268.73 373.844 249.86 398.527 237.826C408.306 233.059 418.23 228.575 428.289 224.435C436.705 220.971 445.307 217.975 453.917 215.029C484.283 201.377 514.403 186.85 545.001 173.745C555.908 168.181 566.901 162.786 577.786 157.18C588.203 151.815 598.427 144.803 610.349 143.128C656.506 136.644 707.712 148.856 741.813 181.806C753.497 193.096 764.56 205.676 771.429 220.293C771.429 220.293 773.653 216.479 774.83 214.612C779.008 207.987 792.113 190.743 801.131 181.715C809.589 173.248 819.351 166.179 829.976 160.46C860.166 144.213 897.334 138.858 931.396 143.297C943.328 144.852 954.744 151.724 965.159 157.088C976.042 162.695 987.039 168.09 997.946 173.654C1028.54 186.759 1058.66 201.286 1089.02 214.938C1097.64 217.884 1106.24 220.88 1114.65 224.343C1124.71 228.484 1134.64 232.968 1144.42 237.735C1169.1 249.769 1199.56 268.639 1200.24 299.715L1200.24 300.148C1204.76 327.016 1186.37 350.744 1169.65 369.46C1162.31 377.683 1154.67 385.642 1147.13 393.683C1146.34 394.526 1145.34 395.177 1144.65 396.108C1144.34 396.534 1143.69 397.647 1144.22 397.636C1148.45 397.544 1152.21 394.612 1156.2 393.78C1180.16 388.798 1208.22 386.845 1231.39 396.411C1271.6 413.007 1280.87 458.975 1284.39 497.719C1285.21 506.744 1285.44 515.82 1285.52 524.882C1285.61 533.921 1285.34 542.965 1284.89 551.993C1284.44 561.029 1283.85 570.067 1282.8 579.053C1280.71 597.081 1278.28 615.073 1275.48 633.006C1272.68 650.971 1269.26 668.834 1266.02 686.725C1277.49 688.347 1285.92 688.621 1298.84 689.63C1306.05 658.396 1308.53 626.328 1312.64 594.624C1317.19 559.401 1323.87 517.754 1326.84 482.33C1329.74 447.863 1331.58 390.336 1332.16 355.772C1332.6 329.368 1332.46 302.957 1332.77 276.551C1332.93 263.05 1334.24 252.098 1332.35 238.62C1332.27 238.053 1331.22 238.479 1330.64 238.409C1328.84 238.189 1327.05 238.016 1325.25 237.748C1317.46 236.584 1309.63 235.64 1301.9 234.112C1290.17 231.795 1278.49 229.209 1266.92 226.219C1228.2 216.218 1191.03 200.432 1156.18 180.925C1130.07 166.312 1106.82 147.375 1083.41 128.915C1078.33 124.913 1073.24 120.922 1068.39 116.651C1065.92 114.472 1066.89 113.237 1064 111.404C1063.03 110.79 1061.58 111.603 1061.85 112.841C1062.47 115.627 1064.26 116.204 1065.51 118.584C1070.27 127.566 1076.82 138.517 1074.66 149.397C1073.91 153.196 1071.23 157 1066.97 156.453C1031.07 151.836 998.689 133.078 967.571 115.87C900.9 79.0033 834.897 43.4351 772.168 0Z" fill="url(#paint2_linear)"/>
<path fill-rule="evenodd" clip-rule="evenodd" d="M1063.18 1473.52C1054.74 1482.22 1046.26 1490.91 1037.77 1499.58C952.347 1586.8 864.716 1672.47 771.76 1751.47C771.76 1751.47 771.696 1751.55 771.552 1751.5C669.359 1664.65 573.671 1569.59 480.208 1473.4C448.137 1441.11 420.184 1408.05 397.278 1374.06C427.911 1407.15 463.206 1427.47 513.188 1405.87C542.951 1444.23 573.739 1479.65 605.357 1512.71L665.14 1563.98L664.55 1563.87C684.829 1579.86 701.145 1591.88 712.749 1584.99C720.422 1579.98 726.68 1570.37 731.225 1562.91C747.738 1535.79 761.077 1506.08 771.594 1476.23L771.797 1476.35C777.199 1491.68 783.346 1506.98 790.285 1521.91C796.856 1536.04 804.135 1549.84 812.162 1563.03C816.713 1570.5 822.965 1580.1 830.638 1585.12C842.247 1592.01 858.56 1579.99 878.842 1563.99L878.253 1564.11L938.035 1512.84C969.653 1479.78 1000.44 1444.36 1030.2 1405.99C1080.19 1427.6 1115.48 1407.27 1146.11 1374.18C1123.21 1408.17 1095.25 1441.24 1063.18 1473.52Z" fill="url(#paint3_linear)"/>
<defs>
<linearGradient id="paint0_linear" x1="0" y1="1049.18" x2="1543.1" y2="1049.18" gradientUnits="userSpaceOnUse">
<stop stop-color="#9E9E9E"/>
<stop offset="1" stop-color="#E6E6E6"/>
</linearGradient>
<linearGradient id="paint1_linear" x1="592.877" y1="647.303" x2="789.112" y2="647.303" gradientUnits="userSpaceOnUse">
<stop stop-color="#9E9E9E"/>
<stop offset="1" stop-color="#E6E6E6"/>
</linearGradient>
<linearGradient id="paint2_linear" x1="209.582" y1="344.86" x2="1333.36" y2="344.86" gradientUnits="userSpaceOnUse">
<stop stop-color="#9E9E9E"/>
<stop offset="1" stop-color="#E6E6E6"/>
</linearGradient>
<linearGradient id="paint3_linear" x1="397.278" y1="1562.78" x2="1146.11" y2="1562.78" gradientUnits="userSpaceOnUse">
<stop stop-color="#9E9E9E"/>
<stop offset="1" stop-color="#E6E6E6"/>
</linearGradient>
</defs>
</svg>
