<svg xmlns="http://www.w3.org/2000/svg" fill="none" viewBox=".08 .6 351.68 51.12"><defs/><path fill="url(#paint0_radial)" d="M36.08.6v2.16H19.16V51H17V2.76H.08V.6h36zM69.94 51h-2.16V30.12h-21.6V51h-2.16V9.24h2.16v18.72h21.6V9.24h2.16V51zm41.602-4.248c-2.64 3.312-6.96 4.968-12.96 4.968-6 0-10.296-1.704-12.888-5.112-2.592-3.408-3.888-8.904-3.888-16.488s1.296-13.08 3.888-16.488c2.592-3.408 6.888-5.112 12.888-5.112 6.96 0 11.688 2.28 14.184 6.84l-17.64 14.76h-3.384l18.216-15.192c-2.112-2.832-5.904-4.248-11.376-4.248-2.4 0-4.416.264-6.048.792-1.632.48-3.144 1.416-4.536 2.808-1.344 1.344-2.352 3.336-3.024 5.976-.672 2.592-1.008 5.88-1.008 9.864 0 3.984.336 7.296 1.008 9.936.672 2.592 1.68 4.584 3.024 5.976 1.392 1.344 2.904 2.28 4.536 2.808 1.632.48 3.648.72 6.048.72 5.472 0 9.264-1.416 11.376-4.248l1.584 1.44zm18.277 2.088h27.792V12.264l-16.2 16.2-16.2-16.2V51l-2.16-.072V9.24h2.16l16.2 16.2 16.2-16.2h2.16V51l-29.952-.072V48.84zm71.582-2.088c-2.64 3.312-6.96 4.968-12.96 4.968-6 0-10.296-1.704-12.888-5.112-2.592-3.408-3.888-8.904-3.888-16.488s1.296-13.08 3.888-16.488c2.592-3.408 6.888-5.112 12.888-5.112 6.96 0 11.688 2.28 14.184 6.84l-17.64 14.76h-3.384l18.216-15.192c-2.112-2.832-5.904-4.248-11.376-4.248-2.4 0-4.416.264-6.048.792-1.632.48-3.144 1.416-4.536 2.808-1.344 1.344-2.352 3.336-3.024 5.976-.672 2.592-1.008 5.88-1.008 9.864 0 3.984.336 7.296 1.008 9.936.672 2.592 1.68 4.584 3.024 5.976 1.392 1.344 2.904 2.28 4.536 2.808 1.632.48 3.648.72 6.048.72 5.472 0 9.264-1.416 11.376-4.248l1.584 1.44zm15.325 2.088h23.472l-14.76-34.776L209.742 51h-2.304l18-42.48 18 42.48h-26.712v-2.16zM262.021 51h-10.368V9.24h7.92c5.664 0 9.936.984 12.816 2.952 2.928 1.968 4.392 4.656 4.392 8.064 0 4.08-1.8 7.032-5.4 8.856 2.64.912 4.608 2.28 5.904 4.104 1.296 1.776 1.944 3.84 1.944 6.192 0 3.456-1.44 6.264-4.32 8.424-2.832 2.112-7.128 3.168-12.888 3.168zm0-2.16c4.224 0 7.776-.768 10.656-2.304 2.928-1.536 4.392-3.912 4.392-7.128 0-1.488-.552-3.096-1.656-4.824-1.104-1.776-2.808-3.072-5.112-3.888l-3.744-1.296 3.456-1.8c1.2-.624 2.256-1.56 3.168-2.808.96-1.296 1.44-2.808 1.44-4.536 0-3.024-1.44-5.256-4.32-6.696-2.88-1.44-6.456-2.16-10.728-2.16h-5.761v37.44h8.209zm52.281 0V51h-24.048V9.24h2.16v39.6h21.888zm36.232-2.088c-2.64 3.312-6.96 4.968-12.96 4.968-6 0-10.296-1.704-12.888-5.112-2.592-3.408-3.888-8.904-3.888-16.488s1.296-13.08 3.888-16.488c2.592-3.408 6.888-5.112 12.888-5.112 6.96 0 11.688 2.28 14.184 6.84l-17.64 14.76h-3.384l18.216-15.192c-2.112-2.832-5.904-4.248-11.376-4.248-2.4 0-4.416.264-6.048.792-1.632.48-3.144 1.416-4.536 2.808-1.344 1.344-2.352 3.336-3.024 5.976-.672 2.592-1.008 5.88-1.008 9.864 0 3.984.336 7.296 1.008 9.936.672 2.592 1.68 4.584 3.024 5.976 1.392 1.344 2.904 2.28 4.536 2.808 1.632.48 3.648.72 6.048.72 5.472 0 9.264-1.416 11.376-4.248l1.584 1.44z"/><path fill="url(#paint1_linear)" fill-opacity=".5" d="M36.08.6v2.16H19.16V51H17V2.76H.08V.6h36zM69.94 51h-2.16V30.12h-21.6V51h-2.16V9.24h2.16v18.72h21.6V9.24h2.16V51zm41.602-4.248c-2.64 3.312-6.96 4.968-12.96 4.968-6 0-10.296-1.704-12.888-5.112-2.592-3.408-3.888-8.904-3.888-16.488s1.296-13.08 3.888-16.488c2.592-3.408 6.888-5.112 12.888-5.112 6.96 0 11.688 2.28 14.184 6.84l-17.64 14.76h-3.384l18.216-15.192c-2.112-2.832-5.904-4.248-11.376-4.248-2.4 0-4.416.264-6.048.792-1.632.48-3.144 1.416-4.536 2.808-1.344 1.344-2.352 3.336-3.024 5.976-.672 2.592-1.008 5.88-1.008 9.864 0 3.984.336 7.296 1.008 9.936.672 2.592 1.68 4.584 3.024 5.976 1.392 1.344 2.904 2.28 4.536 2.808 1.632.48 3.648.72 6.048.72 5.472 0 9.264-1.416 11.376-4.248l1.584 1.44zm18.277 2.088h27.792V12.264l-16.2 16.2-16.2-16.2V51l-2.16-.072V9.24h2.16l16.2 16.2 16.2-16.2h2.16V51l-29.952-.072V48.84zm71.582-2.088c-2.64 3.312-6.96 4.968-12.96 4.968-6 0-10.296-1.704-12.888-5.112-2.592-3.408-3.888-8.904-3.888-16.488s1.296-13.08 3.888-16.488c2.592-3.408 6.888-5.112 12.888-5.112 6.96 0 11.688 2.28 14.184 6.84l-17.64 14.76h-3.384l18.216-15.192c-2.112-2.832-5.904-4.248-11.376-4.248-2.4 0-4.416.264-6.048.792-1.632.48-3.144 1.416-4.536 2.808-1.344 1.344-2.352 3.336-3.024 5.976-.672 2.592-1.008 5.88-1.008 9.864 0 3.984.336 7.296 1.008 9.936.672 2.592 1.68 4.584 3.024 5.976 1.392 1.344 2.904 2.28 4.536 2.808 1.632.48 3.648.72 6.048.72 5.472 0 9.264-1.416 11.376-4.248l1.584 1.44zm15.325 2.088h23.472l-14.76-34.776L209.742 51h-2.304l18-42.48 18 42.48h-26.712v-2.16zM262.021 51h-10.368V9.24h7.92c5.664 0 9.936.984 12.816 2.952 2.928 1.968 4.392 4.656 4.392 8.064 0 4.08-1.8 7.032-5.4 8.856 2.64.912 4.608 2.28 5.904 4.104 1.296 1.776 1.944 3.84 1.944 6.192 0 3.456-1.44 6.264-4.32 8.424-2.832 2.112-7.128 3.168-12.888 3.168zm0-2.16c4.224 0 7.776-.768 10.656-2.304 2.928-1.536 4.392-3.912 4.392-7.128 0-1.488-.552-3.096-1.656-4.824-1.104-1.776-2.808-3.072-5.112-3.888l-3.744-1.296 3.456-1.8c1.2-.624 2.256-1.56 3.168-2.808.96-1.296 1.44-2.808 1.44-4.536 0-3.024-1.44-5.256-4.32-6.696-2.88-1.44-6.456-2.16-10.728-2.16h-5.761v37.44h8.209zm52.281 0V51h-24.048V9.24h2.16v39.6h21.888zm36.232-2.088c-2.64 3.312-6.96 4.968-12.96 4.968-6 0-10.296-1.704-12.888-5.112-2.592-3.408-3.888-8.904-3.888-16.488s1.296-13.08 3.888-16.488c2.592-3.408 6.888-5.112 12.888-5.112 6.96 0 11.688 2.28 14.184 6.84l-17.64 14.76h-3.384l18.216-15.192c-2.112-2.832-5.904-4.248-11.376-4.248-2.4 0-4.416.264-6.048.792-1.632.48-3.144 1.416-4.536 2.808-1.344 1.344-2.352 3.336-3.024 5.976-.672 2.592-1.008 5.88-1.008 9.864 0 3.984.336 7.296 1.008 9.936.672 2.592 1.68 4.584 3.024 5.976 1.392 1.344 2.904 2.28 4.536 2.808 1.632.48 3.648.72 6.048.72 5.472 0 9.264-1.416 11.376-4.248l1.584 1.44z"/><path fill="url(#paint2_linear)" fill-opacity=".7" d="M36.08.6v2.16H19.16V51H17V2.76H.08V.6h36zM69.94 51h-2.16V30.12h-21.6V51h-2.16V9.24h2.16v18.72h21.6V9.24h2.16V51zm41.602-4.248c-2.64 3.312-6.96 4.968-12.96 4.968-6 0-10.296-1.704-12.888-5.112-2.592-3.408-3.888-8.904-3.888-16.488s1.296-13.08 3.888-16.488c2.592-3.408 6.888-5.112 12.888-5.112 6.96 0 11.688 2.28 14.184 6.84l-17.64 14.76h-3.384l18.216-15.192c-2.112-2.832-5.904-4.248-11.376-4.248-2.4 0-4.416.264-6.048.792-1.632.48-3.144 1.416-4.536 2.808-1.344 1.344-2.352 3.336-3.024 5.976-.672 2.592-1.008 5.88-1.008 9.864 0 3.984.336 7.296 1.008 9.936.672 2.592 1.68 4.584 3.024 5.976 1.392 1.344 2.904 2.28 4.536 2.808 1.632.48 3.648.72 6.048.72 5.472 0 9.264-1.416 11.376-4.248l1.584 1.44zm18.277 2.088h27.792V12.264l-16.2 16.2-16.2-16.2V51l-2.16-.072V9.24h2.16l16.2 16.2 16.2-16.2h2.16V51l-29.952-.072V48.84zm71.582-2.088c-2.64 3.312-6.96 4.968-12.96 4.968-6 0-10.296-1.704-12.888-5.112-2.592-3.408-3.888-8.904-3.888-16.488s1.296-13.08 3.888-16.488c2.592-3.408 6.888-5.112 12.888-5.112 6.96 0 11.688 2.28 14.184 6.84l-17.64 14.76h-3.384l18.216-15.192c-2.112-2.832-5.904-4.248-11.376-4.248-2.4 0-4.416.264-6.048.792-1.632.48-3.144 1.416-4.536 2.808-1.344 1.344-2.352 3.336-3.024 5.976-.672 2.592-1.008 5.88-1.008 9.864 0 3.984.336 7.296 1.008 9.936.672 2.592 1.68 4.584 3.024 5.976 1.392 1.344 2.904 2.28 4.536 2.808 1.632.48 3.648.72 6.048.72 5.472 0 9.264-1.416 11.376-4.248l1.584 1.44zm15.325 2.088h23.472l-14.76-34.776L209.742 51h-2.304l18-42.48 18 42.48h-26.712v-2.16zM262.021 51h-10.368V9.24h7.92c5.664 0 9.936.984 12.816 2.952 2.928 1.968 4.392 4.656 4.392 8.064 0 4.08-1.8 7.032-5.4 8.856 2.64.912 4.608 2.28 5.904 4.104 1.296 1.776 1.944 3.84 1.944 6.192 0 3.456-1.44 6.264-4.32 8.424-2.832 2.112-7.128 3.168-12.888 3.168zm0-2.16c4.224 0 7.776-.768 10.656-2.304 2.928-1.536 4.392-3.912 4.392-7.128 0-1.488-.552-3.096-1.656-4.824-1.104-1.776-2.808-3.072-5.112-3.888l-3.744-1.296 3.456-1.8c1.2-.624 2.256-1.56 3.168-2.808.96-1.296 1.44-2.808 1.44-4.536 0-3.024-1.44-5.256-4.32-6.696-2.88-1.44-6.456-2.16-10.728-2.16h-5.761v37.44h8.209zm52.281 0V51h-24.048V9.24h2.16v39.6h21.888zm36.232-2.088c-2.64 3.312-6.96 4.968-12.96 4.968-6 0-10.296-1.704-12.888-5.112-2.592-3.408-3.888-8.904-3.888-16.488s1.296-13.08 3.888-16.488c2.592-3.408 6.888-5.112 12.888-5.112 6.96 0 11.688 2.28 14.184 6.84l-17.64 14.76h-3.384l18.216-15.192c-2.112-2.832-5.904-4.248-11.376-4.248-2.4 0-4.416.264-6.048.792-1.632.48-3.144 1.416-4.536 2.808-1.344 1.344-2.352 3.336-3.024 5.976-.672 2.592-1.008 5.88-1.008 9.864 0 3.984.336 7.296 1.008 9.936.672 2.592 1.68 4.584 3.024 5.976 1.392 1.344 2.904 2.28 4.536 2.808 1.632.48 3.648.72 6.048.72 5.472 0 9.264-1.416 11.376-4.248l1.584 1.44z"/><defs><linearGradient id="paint1_linear" x1="387.148" x2="105.293" y1="46.32" y2="-35.715" gradientUnits="userSpaceOnUse"><stop stop-color="#2DFFCD"/><stop offset="1" stop-color="#59009E"/></linearGradient><linearGradient id="paint2_linear" x1="51.711" x2="178.735" y1="36.24" y2="165.457" gradientUnits="userSpaceOnUse"><stop stop-color="#F6358D"/><stop offset="1" stop-color="#F53C91" stop-opacity="0"/></linearGradient><radialGradient id="paint0_radial" cx="0" cy="0" r="1" gradientTransform="matrix(0 42 -178.5 0 177.5 27)" gradientUnits="userSpaceOnUse"><stop stop-color="#005CE7"/><stop offset="1" stop-color="#69BAC9"/></radialGradient></defs></svg>