<svg xmlns="http://www.w3.org/2000/svg" fill="none" viewBox="0 0 300 300"><defs/><path fill="url(#paint0_linear)" d="M130.592 102.584c3.768-14.826 11.235-17.653 18.296-16.293 7.096 1.245 13.786 6.677 18.642 21.739 4.889 15.063 7.942 39.873 6.576 61.179-1.336 21.424-7.091 39.344-12.623 55.754-5.5 16.41-10.777 31.311-16.848 34.876-6.071 3.566-12.937-4.204-16.061-20.851-3.156-16.649-2.57-42.175-2.227-68.408.344-26.233.446-53.172 4.245-67.996z"/><path fill="url(#paint1_linear)" d="M99.02 57.075c16.252-6.048 37.873-6.507 57.135-7.672 19.262-1.164 36.127-3.046 51.361-.667 15.234 2.378 28.837 9.018 34.178 18.333 5.304 9.302 2.347 21.278-10.745 30.248-13.089 8.986-36.316 14.95-56.582 15.4-20.235.431-37.51-4.651-55.908-9.968-18.395-5.3-37.909-10.82-42.243-19.404-4.333-8.585 6.55-20.222 22.803-26.27z"/><path fill="url(#paint2_linear)" d="M67.092 104.002c-12.964-6.218-18.574-15.978-15.258-24.011 3.355-8.051 15.676-14.356 29.048-20.988 13.33-6.615 27.673-13.56 45.416-14.73 17.742-1.15 38.884 3.472 58.7 11.055 19.816 7.565 38.305 18.109 34.978 26.538-3.367 8.447-28.59 14.796-48.774 20.064-20.184 5.268-35.328 9.455-53.059 10.211-17.731.755-38.048-1.92-51.051-8.139z"/><path fill="url(#paint3_linear)" d="M152.021 57.547c11.815 4.242 23.631 12.134 23.91 20.195.28 8.061-11.027 16.292-22.843 21.298-11.815 5.007-24.139 6.788-37.656 7.569-13.493.764-28.18.56-40.884-4.446-12.704-5.007-23.427-14.816-23.757-24.828-.33-10.013 9.731-20.263 22.436-24.506 12.705-4.243 28.052-2.478 41.595-1.307 13.568 1.188 25.384 1.782 37.199 6.025z"/><path fill="url(#paint4_linear)" d="M128.969 170.017c-1.741-15.783-3.155-26.313-1.951-43.82 1.203-17.508 3.406-35.386 10.477-43.67 7.066-8.258 17.211-5.876 23.338 3.7 6.136 9.612 8.237 26.435 10.571 41.154 2.327 14.683 4.892 27.236 4.156 41.629-.722 14.402-4.754 30.608-10.991 36.466-6.228 5.895-14.679 1.459-21.23-5.806-6.551-7.265-11.219-17.342-14.37-29.653z"/><path fill="url(#paint5_radial)" fill-rule="evenodd" d="M149.999 0C232.788 0 300 67.213 300 150s-67.212 150.001-150.001 150.001C67.214 300.001 0 232.787 0 150S67.214 0 149.999 0zm0 16.594c73.629 0 133.405 59.777 133.405 133.406 0 73.628-59.776 133.405-133.405 133.405-73.628 0-133.404-59.777-133.404-133.405 0-73.629 59.776-133.406 133.404-133.406z" clip-rule="evenodd"/><path fill="url(#paint6_radial)" fill-opacity=".5" fill-rule="evenodd" d="M149.999 0C232.788 0 300 67.213 300 150s-67.212 150.001-150.001 150.001C67.214 300.001 0 232.787 0 150S67.214 0 149.999 0zm0 16.594c73.629 0 133.405 59.777 133.405 133.406 0 73.628-59.776 133.405-133.405 133.405-73.628 0-133.404-59.777-133.404-133.405 0-73.629 59.776-133.406 133.404-133.406z" clip-rule="evenodd"/><defs><linearGradient id="paint0_linear" x1="123.954" x2="154.607" y1="231.988" y2="102.243" gradientUnits="userSpaceOnUse"><stop stop-color="#F32385"/><stop offset="1" stop-color="#F72585" stop-opacity="0"/></linearGradient><linearGradient id="paint1_linear" x1="77.275" x2="241.405" y1="90.844" y2="59.866" gradientUnits="userSpaceOnUse"><stop stop-color="#3A1AA1" stop-opacity=".31"/><stop offset="1" stop-color="#711BB5"/></linearGradient><linearGradient id="paint2_linear" x1="134.752" x2="136.722" y1="112.971" y2="44.2" gradientUnits="userSpaceOnUse"><stop stop-color="#56CAEF"/><stop offset="1" stop-color="#56CAEF" stop-opacity="0"/></linearGradient><linearGradient id="paint3_linear" x1="136.5" x2="62" y1="79" y2="64.5" gradientUnits="userSpaceOnUse"><stop stop-color="#F72585" stop-opacity="0"/><stop offset="1" stop-color="#F32385"/></linearGradient><linearGradient id="paint4_linear" x1="139.201" x2="160.329" y1="199.076" y2="89.745" gradientUnits="userSpaceOnUse"><stop stop-color="#56C9EF"/><stop offset=".995" stop-color="#4667EB" stop-opacity="0"/></linearGradient><radialGradient id="paint5_radial" cx="0" cy="0" r="1" gradientTransform="matrix(313.178 0 0 313.177 .025 150.019)" gradientUnits="userSpaceOnUse"><stop offset=".479" stop-color="#711BB5"/><stop offset=".933" stop-color="#56CAEF"/></radialGradient><radialGradient id="paint6_radial" cx="0" cy="0" r="1" gradientTransform="rotate(36.72 104.217 -43.786) scale(724.202 724.2)" gradientUnits="userSpaceOnUse"><stop stop-color="#9D61CC" stop-opacity=".27"/><stop offset="1" stop-color="#56CAEF"/></radialGradient></defs></svg>